SlimJim.ufo
<glyph name="exclam" format="1">
  <advance width="232"/>
  <unicode hex="0021"/>
  <outline>
    <contour>
      <point x="60" y="102" type="line" smooth="yes"/>
      <point x="58" y="102"/>
      <point x="56" y="101"/>
      <point x="56" y="99" type="curve" smooth="yes"/>
      <point x="56" y="5" type="line" smooth="yes"/>
      <point x="56" y="3"/>
      <point x="58" y="1"/>
      <point x="60" y="1" type="curve" smooth="yes"/>
      <point x="172" y="1" type="line" smooth="yes"/>
      <point x="174" y="1"/>
      <point x="175" y="3"/>
      <point x="176" y="5" type="curve"/>
      <point x="176" y="99" type="line"/>
      <point x="175" y="101"/>
      <point x="174" y="102"/>
      <point x="172" y="102" type="curve" smooth="yes"/>
    </contour>
    <contour>
      <point x="62" y="728" type="line" smooth="yes"/>
      <point x="60" y="728"/>
      <point x="58" y="727"/>
      <point x="58" y="725" type="curve" smooth="yes"/>
      <point x="58" y="144" type="line" smooth="yes"/>
      <point x="58" y="142"/>
      <point x="60" y="140"/>
      <point x="62" y="140" type="curve" smooth="yes"/>
      <point x="169" y="140" type="line" smooth="yes"/>
      <point x="171" y="140"/>
      <point x="172" y="142"/>
      <point x="173" y="144" type="curve"/>
      <point x="173" y="725" type="line"/>
      <point x="172" y="727"/>
      <point x="171" y="728"/>
      <point x="169" y="728" type="curve" smooth="yes"/>
    </contour>
  </outline>
</glyph>
<glyph name="dollar" format="1">
  <advance width="415"/>
  <unicode hex="0024"/>
  <outline>
    <contour>
      <point x="347" y="329" type="curve" smooth="yes"/>
      <point x="341" y="332"/>
      <point x="165" y="453"/>
      <point x="165" y="453" type="curve"/>
      <point x="165" y="453"/>
      <point x="160" y="456"/>
      <point x="157" y="461" type="curve" smooth="yes"/>
      <point x="154" y="467"/>
      <point x="155" y="474"/>
      <point x="155" y="474" type="curve"/>
      <point x="155" y="611" type="line" smooth="yes"/>
      <point x="155" y="613"/>
      <point x="157" y="614"/>
      <point x="158" y="614" type="curve"/>
      <point x="158" y="614" type="line"/>
      <point x="271" y="614" type="line" smooth="yes"/>
      <point x="273" y="614"/>
      <point x="275" y="613"/>
      <point x="275" y="611" type="curve" smooth="yes"/>
      <point x="275" y="474" type="line"/>
      <point x="365" y="474" type="line"/>
      <point x="365" y="611" type="line" smooth="yes"/>
      <point x="365" y="662"/>
      <point x="323" y="704"/>
      <point x="271" y="704" type="curve" smooth="yes"/>
      <point x="152" y="704" type="line" smooth="yes"/>
      <point x="100" y="704"/>
      <point x="58" y="662"/>
      <point x="58" y="611" type="curve" smooth="yes"/>
      <point x="58" y="429" type="line" smooth="yes"/>
      <point x="58" y="417"/>
      <point x="63" y="403"/>
      <point x="74" y="396" type="curve"/>
      <point x="81" y="390"/>
      <point x="230" y="289"/>
      <point x="256" y="273" type="curve" smooth="yes"/>
      <point x="259" y="272"/>
      <point x="259" y="271"/>
      <point x="260" y="270" type="curve"/>
      <point x="260" y="269"/>
      <point x="260" y="266"/>
      <point x="260" y="266" type="curve"/>
      <point x="260" y="92" type="line" smooth="yes"/>
      <point x="260" y="90"/>
      <point x="259" y="89"/>
      <point x="257" y="89" type="curve"/>
      <point x="257" y="89" type="line"/>
      <point x="257" y="89" type="line"/>
      <point x="144" y="89" type="line" smooth="yes"/>
      <point x="142" y="89"/>
      <point x="141" y="90"/>
      <point x="141" y="92" type="curve" smooth="yes"/>
      <point x="141" y="240" type="line"/>
      <point x="50" y="240" type="line"/>
      <point x="50" y="92" type="line" smooth="yes"/>
      <point x="50" y="41"/>
      <point x="92" y="-1"/>
      <point x="145" y="-1" type="curve" smooth="yes"/>
      <point x="263" y="-1" type="line" smooth="yes"/>
      <point x="315" y="-1"/>
      <point x="358" y="41"/>
      <point x="358" y="92" type="curve" smooth="yes"/>
      <point x="358" y="308" type="line" smooth="yes"/>
      <point x="358" y="318"/>
      <point x="353" y="325"/>
    </contour>
    <contour>
      <point x="229" y="-39" type="line" smooth="yes"/>
      <point x="231" y="-39"/>
      <point x="233" y="-38"/>
      <point x="233" y="-36" type="curve" smooth="yes"/>
      <point x="233" y="740" type="line" smooth="yes"/>
      <point x="233" y="742"/>
      <point x="231" y="744"/>
      <point x="229" y="744" type="curve" smooth="yes"/>
      <point x="189" y="744" type="line" smooth="yes"/>
      <point x="187" y="744"/>
      <point x="186" y="742"/>
      <point x="185" y="740" type="curve"/>
      <point x="185" y="-36" type="line"/>
      <point x="186" y="-38"/>
      <point x="187" y="-39"/>
      <point x="189" y="-39" type="curve" smooth="yes"/>
    </contour>
  </outline>
</glyph>
<glyph name="plus" format="1">
  <advance width="434"/>
  <unicode hex="002B"/>
  <outline>
    <contour>
      <point x="39" y="268" type="line"/>
      <point x="40" y="268"/>
      <point x="35" y="266"/>
      <point x="35" y="264" type="curve" smooth="yes"/>
      <point x="35" y="204" type="line" smooth="yes"/>
      <point x="35" y="202"/>
      <point x="37" y="200"/>
      <point x="38" y="200" type="curve"/>
      <point x="396" y="200" type="line"/>
      <point x="397" y="200"/>
      <point x="399" y="202"/>
      <point x="399" y="204" type="curve" smooth="yes"/>
      <point x="399" y="264" type="line" smooth="yes"/>
      <point x="399" y="266"/>
      <point x="397" y="268"/>
      <point x="395" y="268" type="curve" smooth="yes"/>
    </contour>
    <contour>
      <point x="183" y="56" type="line"/>
      <point x="183" y="57"/>
      <point x="185" y="52"/>
      <point x="187" y="52" type="curve" smooth="yes"/>
      <point x="247" y="52" type="line" smooth="yes"/>
      <point x="249" y="52"/>
      <point x="251" y="54"/>
      <point x="251" y="55" type="curve"/>
      <point x="251" y="413" type="line"/>
      <point x="251" y="414"/>
      <point x="249" y="416"/>
      <point x="247" y="416" type="curve" smooth="yes"/>
      <point x="187" y="416" type="line" smooth="yes"/>
      <point x="185" y="416"/>
      <point x="183" y="414"/>
      <point x="183" y="412" type="curve" smooth="yes"/>
    </contour>
  </outline>
</glyph>
<glyph name="comma" format="1">
  <advance width="165"/>
  <unicode hex="002C"/>
  <outline>
    <contour>
      <point x="24" y="108" type="line" smooth="yes"/>
      <point x="22" y="108"/>
      <point x="20" y="107"/>
      <point x="20" y="105" type="curve" smooth="yes"/>
      <point x="20" y="4" type="line" smooth="yes"/>
      <point x="20" y="2"/>
      <point x="22" y="0"/>
      <point x="24" y="0" type="curve" smooth="yes"/>
      <point x="80" y="0" type="line"/>
      <point x="141" y="-89" type="line" smooth="yes"/>
      <point x="142" y="-90"/>
      <point x="144" y="-87"/>
      <point x="145" y="-85" type="curve"/>
      <point x="145" y="105" type="line"/>
      <point x="144" y="107"/>
      <point x="143" y="108"/>
      <point x="141" y="108" type="curve" smooth="yes"/>
    </contour>
  </outline>
</glyph>
<glyph name="period" format="1">
  <advance width="160"/>
  <unicode hex="002E"/>
  <outline>
    <contour>
      <point x="24" y="102" type="line" smooth="yes"/>
      <point x="22" y="102"/>
      <point x="20" y="101"/>
      <point x="20" y="99" type="curve" smooth="yes"/>
      <point x="20" y="5" type="line" smooth="yes"/>
      <point x="20" y="3"/>
      <point x="22" y="1"/>
      <point x="24" y="1" type="curve" smooth="yes"/>
      <point x="136" y="1" type="line" smooth="yes"/>
      <point x="138" y="1"/>
      <point x="139" y="3"/>
      <point x="140" y="5" type="curve"/>
      <point x="140" y="99" type="line"/>
      <point x="139" y="101"/>
      <point x="138" y="102"/>
      <point x="136" y="102" type="curve" smooth="yes"/>
    </contour>
  </outline>
</glyph>
<glyph name="slash" format="1">
  <advance width="440"/>
  <unicode hex="002F"/>
  <outline>
    <contour>
      <point x="400" y="698" type="line"/>
      <point x="400" y="700"/>
      <point x="399" y="701"/>
      <point x="396" y="701" type="curve" smooth="yes"/>
      <point x="319" y="701" type="line" smooth="yes"/>
      <point x="316" y="701"/>
      <point x="315" y="700"/>
      <point x="314" y="698" type="curve" smooth="yes"/>
      <point x="40" y="3" type="line"/>
      <point x="40" y="1"/>
      <point x="41" y="0"/>
      <point x="44" y="0" type="curve" smooth="yes"/>
      <point x="122" y="0" type="line" smooth="yes"/>
      <point x="125" y="0"/>
      <point x="125" y="1"/>
      <point x="126" y="3" type="curve" smooth="yes"/>
    </contour>
  </outline>
</glyph>
<glyph name="three" format="1">
  <advance width="406"/>
  <unicode hex="0033"/>
  <outline>
    <contour>
      <point x="169" y="315" type="line"/>
      <point x="169" y="315"/>
      <point x="169" y="312"/>
      <point x="171" y="312" type="curve"/>
      <point x="240" y="312" type="line"/>
      <point x="241" y="312"/>
      <point x="242" y="311"/>
      <point x="242" y="309" type="curve" smooth="yes"/>
      <point x="242" y="92" type="line" smooth="yes"/>
      <point x="242" y="90"/>
      <point x="241" y="89"/>
      <point x="239" y="88" type="curve"/>
      <point x="159" y="88" type="line"/>
      <point x="158" y="89"/>
      <point x="156" y="90"/>
      <point x="156" y="92" type="curve" smooth="yes"/>
      <point x="156" y="237" type="line" smooth="yes"/>
      <point x="156" y="239"/>
      <point x="155" y="241"/>
      <point x="153" y="241" type="curve" smooth="yes"/>
      <point x="54" y="241" type="line" smooth="yes"/>
      <point x="52" y="241"/>
      <point x="50" y="239"/>
      <point x="50" y="237" type="curve" smooth="yes"/>
      <point x="50" y="92" type="line" smooth="yes"/>
      <point x="50" y="41"/>
      <point x="93" y="0"/>
      <point x="145" y="0" type="curve" smooth="yes"/>
      <point x="256" y="0" type="line" smooth="yes"/>
      <point x="308" y="0"/>
      <point x="350" y="41"/>
      <point x="350" y="92" type="curve" smooth="yes"/>
      <point x="350" y="366" type="line" smooth="yes"/>
      <point x="350" y="376"/>
      <point x="348" y="382"/>
      <point x="339" y="382" type="curve" smooth="yes"/>
      <point x="259" y="382" type="line"/>
      <point x="258" y="382"/>
      <point x="258" y="382"/>
      <point x="259" y="383" type="curve"/>
      <point x="334" y="451" type="line"/>
      <point x="344" y="459"/>
      <point x="350" y="472"/>
      <point x="350" y="484" type="curve" smooth="yes"/>
      <point x="350" y="608" type="line" smooth="yes"/>
      <point x="350" y="659"/>
      <point x="308" y="700"/>
      <point x="255" y="700" type="curve" smooth="yes"/>
      <point x="145" y="700" type="line" smooth="yes"/>
      <point x="92" y="700"/>
      <point x="50" y="659"/>
      <point x="50" y="608" type="curve" smooth="yes"/>
      <point x="50" y="479" type="line" smooth="yes"/>
      <point x="50" y="477"/>
      <point x="52" y="476"/>
      <point x="54" y="476" type="curve" smooth="yes"/>
      <point x="153" y="476" type="line"/>
      <point x="154" y="476"/>
      <point x="156" y="477"/>
      <point x="156" y="479" type="curve" smooth="yes"/>
      <point x="156" y="609" type="line"/>
      <point x="156" y="610"/>
      <point x="157" y="612"/>
      <point x="159" y="612" type="curve" smooth="yes"/>
      <point x="239" y="612" type="line" smooth="yes"/>
      <point x="241" y="612"/>
      <point x="242" y="611"/>
      <point x="242" y="609" type="curve" smooth="yes"/>
      <point x="242" y="475" type="line"/>
      <point x="169" y="407" type="line"/>
    </contour>
  </outline>
</glyph>
<glyph name="four" format="1">
  <advance width="393"/>
  <unicode hex="0034"/>
  <outline>
    <contour>
      <point x="129" y="294" type="line"/>
      <point x="127" y="294"/>
      <point x="126" y="297"/>
      <point x="127" y="300" type="curve" smooth="yes"/>
      <point x="128" y="302"/>
      <point x="199" y="541"/>
      <point x="226" y="621" type="curve"/>
      <point x="226" y="294" type="line"/>
    </contour>
    <contour>
      <point x="155" y="700" type="line"/>
      <point x="26" y="299" type="line" smooth="yes"/>
      <point x="25" y="295"/>
      <point x="25" y="291"/>
      <point x="25" y="289" type="curve"/>
      <point x="25" y="217" type="line" smooth="yes"/>
      <point x="25" y="216"/>
      <point x="26" y="215"/>
      <point x="27" y="215" type="curve"/>
      <point x="226" y="215" type="line"/>
      <point x="226" y="2" type="line" smooth="yes"/>
      <point x="226" y="0"/>
      <point x="227" y="-1"/>
      <point x="229" y="-1" type="curve"/>
      <point x="324" y="-1" type="line" smooth="yes"/>
      <point x="325" y="-1"/>
      <point x="327" y="0"/>
      <point x="327" y="2" type="curve"/>
      <point x="327" y="695" type="line" smooth="yes"/>
      <point x="327" y="697"/>
      <point x="326" y="699"/>
      <point x="324" y="699" type="curve"/>
    </contour>
  </outline>
</glyph>
<glyph name="seven" format="1">
  <advance width="342"/>
  <unicode hex="0037"/>
  <outline>
    <contour>
      <point x="68" y="3" type="line"/>
      <point x="207" y="616" type="line" smooth="yes"/>
      <point x="207" y="618"/>
      <point x="206" y="619"/>
      <point x="204" y="619" type="curve"/>
      <point x="123" y="619" type="line" smooth="yes"/>
      <point x="121" y="619"/>
      <point x="120" y="618"/>
      <point x="119" y="616" type="curve"/>
      <point x="119" y="616" type="line"/>
      <point x="119" y="530" type="line" smooth="yes"/>
      <point x="119" y="528"/>
      <point x="118" y="526"/>
      <point x="116" y="526" type="curve"/>
      <point x="28" y="526" type="line" smooth="yes"/>
      <point x="27" y="526"/>
      <point x="25" y="528"/>
      <point x="25" y="529" type="curve"/>
      <point x="25" y="530" type="line"/>
      <point x="25" y="700" type="line" smooth="yes"/>
      <point x="25" y="701"/>
      <point x="27" y="703"/>
      <point x="28" y="703" type="curve"/>
      <point x="313" y="703" type="line" smooth="yes"/>
      <point x="315" y="703"/>
      <point x="317" y="701"/>
      <point x="317" y="699" type="curve"/>
      <point x="317" y="629" type="line" smooth="yes"/>
      <point x="317" y="629"/>
      <point x="182" y="5"/>
      <point x="181" y="3" type="curve" smooth="yes"/>
    </contour>
  </outline>
</glyph>
<glyph name="eight" format="1">
  <advance width="425"/>
  <unicode hex="0038"/>
  <outline>
    <contour>
      <point x="261" y="92" type="line"/>
      <point x="261" y="90"/>
      <point x="260" y="89"/>
      <point x="258" y="88" type="curve"/>
      <point x="258" y="88" type="line"/>
      <point x="258" y="88" type="line"/>
      <point x="166" y="88" type="line"/>
      <point x="166" y="88" type="line"/>
      <point x="166" y="88" type="line" smooth="yes"/>
      <point x="165" y="89"/>
      <point x="163" y="90"/>
      <point x="163" y="92" type="curve"/>
      <point x="163" y="316" type="line" smooth="yes"/>
      <point x="163" y="325"/>
      <point x="170" y="332"/>
      <point x="180" y="332" type="curve"/>
      <point x="245" y="332" type="line" smooth="yes"/>
      <point x="254" y="332"/>
      <point x="261" y="325"/>
      <point x="261" y="316" type="curve" smooth="yes"/>
    </contour>
    <contour>
      <point x="176" y="628" type="line"/>
      <point x="176" y="630"/>
      <point x="178" y="631"/>
      <point x="179" y="631" type="curve"/>
      <point x="179" y="631" type="line"/>
      <point x="179" y="631" type="line"/>
      <point x="245" y="631" type="line"/>
      <point x="245" y="631" type="line"/>
      <point x="245" y="631" type="line" smooth="yes"/>
      <point x="247" y="631"/>
      <point x="248" y="630"/>
      <point x="248" y="628" type="curve"/>
      <point x="248" y="439" type="line" smooth="yes"/>
      <point x="247" y="433"/>
      <point x="243" y="427"/>
      <point x="236" y="426" type="curve"/>
      <point x="192" y="426" type="line" smooth="yes"/>
      <point x="183" y="426"/>
      <point x="176" y="433"/>
      <point x="176" y="442" type="curve" smooth="yes"/>
    </contour>
    <contour>
      <point x="298" y="385" type="curve"/>
      <point x="339" y="395"/>
      <point x="356" y="431"/>
      <point x="356" y="474" type="curve"/>
      <point x="356" y="608" type="line" smooth="yes"/>
      <point x="356" y="659"/>
      <point x="313" y="700"/>
      <point x="261" y="700" type="curve"/>
      <point x="163" y="700" type="line" smooth="yes"/>
      <point x="111" y="700"/>
      <point x="68" y="659"/>
      <point x="68" y="608" type="curve"/>
      <point x="68" y="474" type="line" smooth="yes"/>
      <point x="68" y="431"/>
      <point x="86" y="395"/>
      <point x="126" y="385" type="curve" smooth="yes"/>
      <point x="86" y="375"/>
      <point x="56" y="339"/>
      <point x="56" y="296" type="curve"/>
      <point x="56" y="92" type="line" smooth="yes"/>
      <point x="56" y="41"/>
      <point x="98" y="0"/>
      <point x="150" y="0" type="curve"/>
      <point x="149" y="0" type="line"/>
      <point x="275" y="0" type="line"/>
      <point x="274" y="0" type="line" smooth="yes"/>
      <point x="326" y="0"/>
      <point x="369" y="41"/>
      <point x="369" y="92" type="curve"/>
      <point x="369" y="296" type="line" smooth="yes"/>
      <point x="369" y="339"/>
      <point x="339" y="375"/>
    </contour>
  </outline>
</glyph>
<glyph name="nine" format="1">
  <advance width="413"/>
  <unicode hex="0039"/>
  <outline>
    <contour>
      <point x="249" y="703" type="curve"/>
      <point x="250" y="703" type="line"/>
      <point x="146" y="703" type="line"/>
      <point x="147" y="703" type="line"/>
      <point x="95" y="703"/>
      <point x="56" y="661"/>
      <point x="56" y="609" type="curve"/>
      <point x="56" y="364" type="line"/>
      <point x="56" y="312"/>
      <point x="98" y="274"/>
      <point x="150" y="274" type="curve"/>
      <point x="240" y="274" type="line"/>
      <point x="240" y="96" type="line"/>
      <point x="240" y="94"/>
      <point x="238" y="93"/>
      <point x="237" y="93" type="curve"/>
      <point x="152" y="93" type="line"/>
      <point x="151" y="93"/>
      <point x="149" y="94"/>
      <point x="149" y="96" type="curve"/>
      <point x="149" y="169" type="line"/>
      <point x="149" y="171"/>
      <point x="148" y="172"/>
      <point x="146" y="172" type="curve"/>
      <point x="69" y="172" type="line"/>
      <point x="68" y="172"/>
      <point x="67" y="171"/>
      <point x="66" y="169" type="curve"/>
      <point x="66" y="6" type="line"/>
      <point x="67" y="4"/>
      <point x="68" y="3"/>
      <point x="69" y="3" type="curve"/>
      <point x="256" y="3" type="line"/>
      <point x="302" y="3"/>
      <point x="344" y="45"/>
      <point x="344" y="90" type="curve"/>
      <point x="344" y="603" type="line"/>
      <point x="344" y="661"/>
      <point x="302" y="703"/>
    </contour>
    <contour>
      <point x="240" y="357" type="line"/>
      <point x="240" y="355"/>
      <point x="238" y="353"/>
      <point x="237" y="353" type="curve"/>
      <point x="160" y="353" type="line"/>
      <point x="158" y="353"/>
      <point x="157" y="355"/>
      <point x="157" y="357" type="curve"/>
      <point x="157" y="595" type="line"/>
      <point x="157" y="596"/>
      <point x="158" y="598"/>
      <point x="160" y="598" type="curve"/>
      <point x="237" y="598" type="line"/>
      <point x="238" y="598"/>
      <point x="240" y="596"/>
      <point x="240" y="595" type="curve"/>
    </contour>
  </outline>
</glyph>
<glyph name="colon" format="1">
  <advance width="220"/>
  <unicode hex="003A"/>
  <outline>
    <contour>
      <point x="54" y="102" type="line" smooth="yes"/>
      <point x="52" y="102"/>
      <point x="50" y="101"/>
      <point x="50" y="99" type="curve" smooth="yes"/>
      <point x="50" y="5" type="line" smooth="yes"/>
      <point x="50" y="3"/>
      <point x="52" y="1"/>
      <point x="54" y="1" type="curve" smooth="yes"/>
      <point x="166" y="1" type="line" smooth="yes"/>
      <point x="168" y="1"/>
      <point x="169" y="3"/>
      <point x="170" y="5" type="curve"/>
      <point x="170" y="99" type="line"/>
      <point x="169" y="101"/>
      <point x="168" y="102"/>
      <point x="166" y="102" type="curve" smooth="yes"/>
    </contour>
    <contour>
      <point x="54" y="454" type="line" smooth="yes"/>
      <point x="52" y="454"/>
      <point x="50" y="453"/>
      <point x="50" y="451" type="curve" smooth="yes"/>
      <point x="50" y="357" type="line" smooth="yes"/>
      <point x="50" y="355"/>
      <point x="52" y="353"/>
      <point x="54" y="353" type="curve" smooth="yes"/>
      <point x="166" y="353" type="line" smooth="yes"/>
      <point x="168" y="353"/>
      <point x="169" y="355"/>
      <point x="170" y="357" type="curve"/>
      <point x="170" y="451" type="line"/>
      <point x="169" y="453"/>
      <point x="168" y="454"/>
      <point x="166" y="454" type="curve" smooth="yes"/>
    </contour>
  </outline>
</glyph>
<glyph name="semicolon" format="1">
  <advance width="233"/>
  <unicode hex="003B"/>
  <outline>
    <contour>
      <point x="54" y="493" type="line" smooth="yes"/>
      <point x="52" y="493"/>
      <point x="50" y="492"/>
      <point x="50" y="490" type="curve" smooth="yes"/>
      <point x="50" y="396" type="line" smooth="yes"/>
      <point x="50" y="394"/>
      <point x="52" y="392"/>
      <point x="54" y="392" type="curve" smooth="yes"/>
      <point x="166" y="392" type="line" smooth="yes"/>
      <point x="168" y="392"/>
      <point x="169" y="394"/>
      <point x="170" y="396" type="curve"/>
      <point x="170" y="490" type="line"/>
      <point x="169" y="492"/>
      <point x="168" y="493"/>
      <point x="166" y="493" type="curve" smooth="yes"/>
    </contour>
    <contour>
      <point x="62" y="108" type="line" smooth="yes"/>
      <point x="60" y="108"/>
      <point x="58" y="107"/>
      <point x="58" y="105" type="curve" smooth="yes"/>
      <point x="58" y="4" type="line" smooth="yes"/>
      <point x="58" y="2"/>
      <point x="60" y="0"/>
      <point x="62" y="0" type="curve" smooth="yes"/>
      <point x="118" y="0" type="line"/>
      <point x="179" y="-89" type="line" smooth="yes"/>
      <point x="180" y="-90"/>
      <point x="182" y="-87"/>
      <point x="183" y="-85" type="curve"/>
      <point x="183" y="105" type="line"/>
      <point x="182" y="107"/>
      <point x="181" y="108"/>
      <point x="179" y="108" type="curve" smooth="yes"/>
    </contour>
  </outline>
</glyph>
<glyph name="less" format="1">
  <advance width="364"/>
  <unicode hex="003C"/>
  <outline>
    <contour>
      <point x="288" y="528" type="line"/>
      <point x="283" y="529"/>
      <point x="279" y="524"/>
      <point x="279" y="524" type="curve"/>
      <point x="55" y="298" type="line" smooth="yes"/>
      <point x="53" y="296"/>
      <point x="51" y="291"/>
      <point x="50" y="288" type="curve" smooth="yes"/>
      <point x="50" y="285" type="line" smooth="yes"/>
      <point x="51" y="281"/>
      <point x="53" y="277"/>
      <point x="55" y="274" type="curve" smooth="yes"/>
      <point x="279" y="48" type="line"/>
      <point x="279" y="48"/>
      <point x="283" y="43"/>
      <point x="288" y="44" type="curve"/>
      <point x="311" y="43" type="line"/>
      <point x="312" y="43"/>
      <point x="314" y="45"/>
      <point x="314" y="47" type="curve" smooth="yes"/>
      <point x="314" y="142" type="line" smooth="yes"/>
      <point x="314" y="144"/>
      <point x="313" y="145"/>
      <point x="311" y="145" type="curve"/>
      <point x="179" y="275" type="line"/>
      <point x="177" y="278"/>
      <point x="175" y="283"/>
      <point x="175" y="286" type="curve" smooth="yes"/>
      <point x="175" y="288" type="line"/>
      <point x="175" y="289"/>
      <point x="177" y="295"/>
      <point x="179" y="297" type="curve" smooth="yes"/>
      <point x="311" y="427" type="line" smooth="yes"/>
      <point x="313" y="428"/>
      <point x="314" y="429"/>
      <point x="314" y="430" type="curve"/>
      <point x="314" y="525" type="line" smooth="yes"/>
      <point x="314" y="527"/>
      <point x="312" y="529"/>
      <point x="311" y="529" type="curve"/>
    </contour>
  </outline>
</glyph>
<glyph name="equal" format="1">
  <advance width="509"/>
  <unicode hex="003D"/>
  <outline>
    <contour>
      <point x="459" y="354" type="line" smooth="yes"/>
      <point x="459" y="356"/>
      <point x="458" y="358"/>
      <point x="456" y="358" type="curve" smooth="yes"/>
      <point x="54" y="358" type="line" smooth="yes"/>
      <point x="52" y="358"/>
      <point x="50" y="356"/>
      <point x="50" y="354" type="curve" smooth="yes"/>
      <point x="50" y="304" type="line" smooth="yes"/>
      <point x="50" y="302"/>
      <point x="52" y="301"/>
      <point x="54" y="300" type="curve"/>
      <point x="456" y="300" type="line"/>
      <point x="458" y="301"/>
      <point x="459" y="302"/>
      <point x="459" y="304" type="curve" smooth="yes"/>
    </contour>
    <contour>
      <point x="459" y="164" type="line" smooth="yes"/>
      <point x="459" y="166"/>
      <point x="458" y="168"/>
      <point x="456" y="168" type="curve" smooth="yes"/>
      <point x="54" y="168" type="line" smooth="yes"/>
      <point x="52" y="168"/>
      <point x="50" y="166"/>
      <point x="50" y="164" type="curve" smooth="yes"/>
      <point x="50" y="114" type="line" smooth="yes"/>
      <point x="50" y="112"/>
      <point x="52" y="111"/>
      <point x="54" y="110" type="curve"/>
      <point x="456" y="110" type="line"/>
      <point x="458" y="111"/>
      <point x="459" y="112"/>
      <point x="459" y="114" type="curve" smooth="yes"/>
    </contour>
  </outline>
</glyph>
<glyph name="question" format="1">
  <advance width="389"/>
  <unicode hex="003F"/>
  <outline>
    <contour>
      <point x="246" y="273" type="line" smooth="yes"/>
      <point x="246" y="275"/>
      <point x="246" y="277"/>
      <point x="247" y="278" type="curve" smooth="yes"/>
      <point x="337" y="429" type="line" smooth="yes"/>
      <point x="338" y="431"/>
      <point x="339" y="435"/>
      <point x="339" y="438" type="curve" smooth="yes"/>
      <point x="339" y="621" type="line" smooth="yes"/>
      <point x="339" y="672"/>
      <point x="303" y="713"/>
      <point x="250" y="713" type="curve" smooth="yes"/>
      <point x="141" y="713" type="line" smooth="yes"/>
      <point x="89" y="713"/>
      <point x="50" y="671"/>
      <point x="50" y="620" type="curve" smooth="yes"/>
      <point x="50" y="480" type="line"/>
      <point x="149" y="480" type="line"/>
      <point x="149" y="621" type="line"/>
      <point x="149" y="622"/>
      <point x="150" y="624"/>
      <point x="152" y="624" type="curve" smooth="yes"/>
      <point x="239" y="624" type="line" smooth="yes"/>
      <point x="241" y="624"/>
      <point x="242" y="623"/>
      <point x="242" y="621" type="curve" smooth="yes"/>
      <point x="242" y="481" type="line" smooth="yes"/>
      <point x="242" y="479"/>
      <point x="242" y="475"/>
      <point x="240" y="473" type="curve"/>
      <point x="240" y="472"/>
      <point x="158" y="343"/>
      <point x="132" y="300" type="curve" smooth="yes"/>
      <point x="131" y="297"/>
      <point x="130" y="291"/>
      <point x="130" y="288" type="curve" smooth="yes"/>
      <point x="130" y="158" type="line" smooth="yes"/>
      <point x="130" y="156"/>
      <point x="131" y="155"/>
      <point x="132" y="155" type="curve"/>
      <point x="241" y="155" type="line" smooth="yes"/>
      <point x="243" y="155"/>
      <point x="245" y="156"/>
      <point x="245" y="158" type="curve" smooth="yes"/>
    </contour>
    <contour>
      <point x="135" y="102" type="line" smooth="yes"/>
      <point x="133" y="102"/>
      <point x="131" y="101"/>
      <point x="131" y="99" type="curve" smooth="yes"/>
      <point x="131" y="5" type="line" smooth="yes"/>
      <point x="131" y="3"/>
      <point x="133" y="1"/>
      <point x="135" y="1" type="curve" smooth="yes"/>
      <point x="247" y="1" type="line" smooth="yes"/>
      <point x="249" y="1"/>
      <point x="250" y="3"/>
      <point x="251" y="5" type="curve"/>
      <point x="251" y="99" type="line"/>
      <point x="250" y="101"/>
      <point x="249" y="102"/>
      <point x="247" y="102" type="curve" smooth="yes"/>
    </contour>
  </outline>
</glyph>
<glyph name="at" format="1">
  <advance width="644"/>
  <unicode hex="0040"/>
  <outline>
    <contour>
      <point x="114" y="505" type="line"/>
      <point x="74" y="502"/>
      <point x="50" y="475"/>
      <point x="50" y="434" type="curve" smooth="yes"/>
      <point x="50" y="-35" type="line"/>
      <point x="53" y="-75"/>
      <point x="92" y="-99"/>
      <point x="110" y="-99" type="curve"/>
      <point x="117" y="-99"/>
      <point x="442" y="-99"/>
      <point x="442" y="-99" type="curve"/>
      <point x="443" y="-99"/>
      <point x="445" y="-97"/>
      <point x="445" y="-95" type="curve" smooth="yes"/>
      <point x="445" y="-45" type="line" smooth="yes"/>
      <point x="445" y="-43"/>
      <point x="443" y="-41"/>
      <point x="441" y="-41" type="curve" smooth="yes"/>
      <point x="114" y="-41" type="line" smooth="yes"/>
      <point x="110" y="-41"/>
      <point x="108" y="-40"/>
      <point x="108" y="-37" type="curve" smooth="yes"/>
      <point x="108" y="441" type="line" smooth="yes"/>
      <point x="108" y="445"/>
      <point x="109" y="447"/>
      <point x="112" y="447" type="curve" smooth="yes"/>
      <point x="530" y="447" type="line" smooth="yes"/>
      <point x="533" y="447"/>
      <point x="535" y="445"/>
      <point x="535" y="441" type="curve" smooth="yes"/>
      <point x="535" y="76" type="line"/>
      <point x="470" y="76" type="line"/>
      <point x="470" y="304" type="line" smooth="yes"/>
      <point x="470" y="349"/>
      <point x="434" y="384"/>
      <point x="390" y="384" type="curve" smooth="yes"/>
      <point x="240" y="384" type="line" smooth="yes"/>
      <point x="197" y="384"/>
      <point x="164" y="349"/>
      <point x="164" y="304" type="curve" smooth="yes"/>
      <point x="164" y="271" type="line" smooth="yes"/>
      <point x="164" y="269"/>
      <point x="166" y="267"/>
      <point x="167" y="267" type="curve"/>
      <point x="245" y="267" type="line"/>
      <point x="246" y="267"/>
      <point x="248" y="269"/>
      <point x="248" y="271" type="curve" smooth="yes"/>
      <point x="248" y="305" type="line"/>
      <point x="248" y="306"/>
      <point x="249" y="308"/>
      <point x="250" y="308" type="curve"/>
      <point x="380" y="308" type="line"/>
      <point x="381" y="308"/>
      <point x="382" y="306"/>
      <point x="382" y="305" type="curve"/>
      <point x="382" y="220" type="line"/>
      <point x="167" y="220" type="line"/>
      <point x="166" y="220"/>
      <point x="164" y="220"/>
      <point x="164" y="218" type="curve" smooth="yes"/>
      <point x="164" y="80" type="line" smooth="yes"/>
      <point x="164" y="36"/>
      <point x="197" y="1"/>
      <point x="240" y="0" type="curve"/>
      <point x="592" y="0" type="line"/>
      <point x="592" y="0"/>
      <point x="594" y="1"/>
      <point x="594" y="3" type="curve" smooth="yes"/>
      <point x="594" y="441" type="line"/>
      <point x="591" y="481"/>
      <point x="564" y="505"/>
      <point x="523" y="505" type="curve" smooth="yes"/>
    </contour>
    <contour>
      <point x="382" y="78" type="line" smooth="yes"/>
      <point x="382" y="76"/>
      <point x="381" y="75"/>
      <point x="380" y="75" type="curve"/>
      <point x="250" y="75" type="line"/>
      <point x="249" y="75"/>
      <point x="248" y="76"/>
      <point x="248" y="78" type="curve" smooth="yes"/>
      <point x="248" y="159" type="line"/>
      <point x="382" y="159" type="line"/>
    </contour>
  </outline>
</glyph>
<glyph name="A" format="1">
  <advance width="459"/>
  <unicode hex="0041"/>
  <outline>
    <contour>
      <point x="301" y="703" type="qcurve"/>
      <point x="158" y="703" type="line"/>
      <point x="105" y="702"/>
      <point x="64" y="660"/>
      <point x="64" y="609" type="curve" smooth="yes"/>
      <point x="64" y="2" type="line"/>
      <point x="64" y="1"/>
      <point x="65" y="-1"/>
      <point x="67" y="-1" type="curve" smooth="yes"/>
      <point x="170" y="-1" type="line" smooth="yes"/>
      <point x="172" y="-1"/>
      <point x="174" y="0"/>
      <point x="174" y="2" type="curve" smooth="yes"/>
      <point x="174" y="285" type="line"/>
      <point x="285" y="285" type="line"/>
      <point x="285" y="2" type="line"/>
      <point x="285" y="1"/>
      <point x="286" y="-1"/>
      <point x="288" y="-1" type="curve" smooth="yes"/>
      <point x="391" y="-1" type="line" smooth="yes"/>
      <point x="393" y="-1"/>
      <point x="395" y="0"/>
      <point x="395" y="2" type="curve" smooth="yes"/>
      <point x="395" y="609" type="line"/>
      <point x="395" y="628"/>
      <point x="380" y="663"/>
      <point x="354" y="688"/>
      <point x="319" y="703"/>
    </contour>
    <contour>
      <point x="174" y="375" type="line"/>
      <point x="174" y="609" type="line" smooth="yes"/>
      <point x="174" y="611"/>
      <point x="175" y="612"/>
      <point x="177" y="612" type="curve"/>
      <point x="177" y="613" type="line"/>
      <point x="282" y="613" type="line"/>
      <point x="282" y="612" type="line"/>
      <point x="283" y="612"/>
      <point x="285" y="611"/>
      <point x="285" y="609" type="curve" smooth="yes"/>
      <point x="285" y="375" type="line"/>
    </contour>
    <contour>
      <point x="229" y="744" type="move" name="Top"/>
    </contour>
    <contour>
      <point x="347" y="351" type="move" name="Right"/>
    </contour>
  </outline>
</glyph>
<glyph name="C" format="1">
  <advance width="435"/>
  <unicode hex="0043"/>
  <outline>
    <contour>
      <point x="284" y="704" type="line"/>
      <point x="155" y="704" type="line"/>
      <point x="156" y="704" type="line" smooth="yes"/>
      <point x="104" y="704"/>
      <point x="62" y="662"/>
      <point x="62" y="610" type="curve"/>
      <point x="62" y="94" type="line" smooth="yes"/>
      <point x="62" y="42"/>
      <point x="104" y="0"/>
      <point x="156" y="0" type="curve"/>
      <point x="155" y="0" type="line"/>
      <point x="284" y="0" type="line"/>
      <point x="283" y="0" type="line" smooth="yes"/>
      <point x="335" y="0"/>
      <point x="374" y="42"/>
      <point x="374" y="94" type="curve"/>
      <point x="374" y="276" type="line" smooth="yes"/>
      <point x="374" y="278"/>
      <point x="372" y="280"/>
      <point x="371" y="280" type="curve"/>
      <point x="274" y="280" type="line" smooth="yes"/>
      <point x="272" y="280"/>
      <point x="270" y="278"/>
      <point x="270" y="276" type="curve"/>
      <point x="270" y="93" type="line" smooth="yes"/>
      <point x="270" y="92"/>
      <point x="269" y="90"/>
      <point x="267" y="90" type="curve"/>
      <point x="267" y="90" type="line"/>
      <point x="267" y="90" type="line"/>
      <point x="175" y="90" type="line"/>
      <point x="175" y="90" type="line"/>
      <point x="175" y="90" type="line" smooth="yes"/>
      <point x="173" y="90"/>
      <point x="172" y="92"/>
      <point x="172" y="93" type="curve"/>
      <point x="172" y="610" type="line" smooth="yes"/>
      <point x="172" y="612"/>
      <point x="173" y="614"/>
      <point x="175" y="614" type="curve"/>
      <point x="175" y="614" type="line"/>
      <point x="175" y="614" type="line"/>
      <point x="267" y="614" type="line"/>
      <point x="267" y="614" type="line"/>
      <point x="267" y="614" type="line" smooth="yes"/>
      <point x="269" y="614"/>
      <point x="270" y="612"/>
      <point x="270" y="610" type="curve"/>
      <point x="270" y="469" type="line" smooth="yes"/>
      <point x="270" y="467"/>
      <point x="272" y="466"/>
      <point x="273" y="466" type="curve"/>
      <point x="370" y="466" type="line" smooth="yes"/>
      <point x="372" y="466"/>
      <point x="374" y="467"/>
      <point x="374" y="469" type="curve"/>
      <point x="374" y="610" type="line" smooth="yes"/>
      <point x="374" y="662"/>
      <point x="335" y="704"/>
      <point x="283" y="704" type="curve"/>
    </contour>
    <contour>
      <point x="223" y="0" type="move" name="Bottom"/>
    </contour>
  </outline>
</glyph>
<glyph name="D" format="1">
  <advance width="449"/>
  <unicode hex="0044"/>
  <outline>
    <contour>
      <point x="276" y="138" type="curve"/>
      <point x="276" y="106"/>
      <point x="261" y="92"/>
      <point x="236" y="92" type="curve" smooth="yes"/>
      <point x="179" y="92" type="line" smooth="yes"/>
      <point x="177" y="92"/>
      <point x="176" y="93"/>
      <point x="176" y="95" type="curve" smooth="yes"/>
      <point x="176" y="611" type="line" smooth="yes"/>
      <point x="176" y="613"/>
      <point x="177" y="614"/>
      <point x="179" y="614" type="curve" smooth="yes"/>
      <point x="225" y="614" type="line" smooth="yes"/>
      <point x="250" y="614"/>
      <point x="276" y="600"/>
      <point x="276" y="567" type="curve" smooth="yes"/>
      <point x="277" y="533"/>
      <point x="277" y="582"/>
    </contour>
    <contour>
      <point x="387" y="567" type="curve"/>
      <point x="387" y="619"/>
      <point x="348" y="704"/>
      <point x="227" y="704" type="curve" smooth="yes"/>
      <point x="69" y="704" type="line"/>
      <point x="68" y="704"/>
      <point x="66" y="702"/>
      <point x="66" y="700" type="curve" smooth="yes"/>
      <point x="66" y="3" type="line" smooth="yes"/>
      <point x="66" y="1"/>
      <point x="68" y="0"/>
      <point x="69" y="0" type="curve"/>
      <point x="238" y="0" type="line" smooth="yes"/>
      <point x="359" y="0"/>
      <point x="387" y="83"/>
      <point x="387" y="135" type="curve" smooth="yes"/>
      <point x="387" y="566"/>
      <point x="387" y="545"/>
    </contour>
  </outline>
</glyph>
<glyph name="E" format="1">
  <advance width="382"/>
  <unicode hex="0045"/>
  <outline>
    <contour>
      <point x="348" y="700" type="line" smooth="yes"/>
      <point x="348" y="702"/>
      <point x="347" y="704"/>
      <point x="345" y="704" type="curve" smooth="yes"/>
      <point x="70" y="704" type="line" smooth="yes"/>
      <point x="68" y="704"/>
      <point x="66" y="702"/>
      <point x="66" y="700" type="curve" smooth="yes"/>
      <point x="66" y="3" type="line" smooth="yes"/>
      <point x="66" y="1"/>
      <point x="68" y="0"/>
      <point x="70" y="0" type="curve" smooth="yes"/>
      <point x="337" y="0" type="line" smooth="yes"/>
      <point x="339" y="0"/>
      <point x="341" y="1"/>
      <point x="341" y="3" type="curve" smooth="yes"/>
      <point x="341" y="89" type="line" smooth="yes"/>
      <point x="341" y="91"/>
      <point x="339" y="92"/>
      <point x="337" y="92" type="curve" smooth="yes"/>
      <point x="176" y="92" type="line"/>
      <point x="176" y="352" type="line"/>
      <point x="325" y="352" type="line" smooth="yes"/>
      <point x="327" y="352"/>
      <point x="329" y="353"/>
      <point x="329" y="355" type="curve" smooth="yes"/>
      <point x="329" y="428" type="line" smooth="yes"/>
      <point x="329" y="430"/>
      <point x="327" y="432"/>
      <point x="325" y="432" type="curve" smooth="yes"/>
      <point x="176" y="432" type="line"/>
      <point x="176" y="614" type="line"/>
      <point x="345" y="614" type="line" smooth="yes"/>
      <point x="347" y="614"/>
      <point x="348" y="616"/>
      <point x="348" y="618" type="curve" smooth="yes"/>
    </contour>
    <contour>
      <point x="212" y="744" type="move" name="Top"/>
    </contour>
    <contour>
      <point x="122" y="353" type="move" name="_Right"/>
    </contour>
  </outline>
</glyph>
<glyph name="F" format="1">
  <advance width="382"/>
  <unicode hex="0046"/>
  <outline>
    <contour>
      <point x="352" y="700" type="line" smooth="yes"/>
      <point x="352" y="702"/>
      <point x="350" y="704"/>
      <point x="348" y="704" type="curve"/>
      <point x="70" y="704" type="line" smooth="yes"/>
      <point x="68" y="704"/>
      <point x="66" y="702"/>
      <point x="66" y="700" type="curve"/>
      <point x="66" y="3" type="line" smooth="yes"/>
      <point x="66" y="1"/>
      <point x="68" y="0"/>
      <point x="70" y="0" type="curve"/>
      <point x="172" y="0" type="line" smooth="yes"/>
      <point x="174" y="0"/>
      <point x="175" y="1"/>
      <point x="176" y="3" type="curve"/>
      <point x="176" y="336" type="line"/>
      <point x="329" y="336" type="line" smooth="yes"/>
      <point x="331" y="336"/>
      <point x="332" y="338"/>
      <point x="332" y="339" type="curve"/>
      <point x="332" y="413" type="line" smooth="yes"/>
      <point x="332" y="415"/>
      <point x="331" y="416"/>
      <point x="329" y="416" type="curve"/>
      <point x="176" y="416" type="line"/>
      <point x="176" y="614" type="line"/>
      <point x="348" y="614" type="line" smooth="yes"/>
      <point x="350" y="614"/>
      <point x="352" y="616"/>
      <point x="352" y="618" type="curve" smooth="yes"/>
    </contour>
  </outline>
</glyph>
<glyph name="G" format="1">
  <advance width="444"/>
  <unicode hex="0047"/>
  <outline>
    <contour>
      <point x="396" y="348" type="line"/>
      <point x="396" y="350"/>
      <point x="395" y="351"/>
      <point x="393" y="351" type="curve"/>
      <point x="250" y="351" type="line" smooth="yes"/>
      <point x="248" y="351"/>
      <point x="247" y="350"/>
      <point x="247" y="348" type="curve"/>
      <point x="247" y="274" type="line" smooth="yes"/>
      <point x="247" y="272"/>
      <point x="248" y="271"/>
      <point x="250" y="271" type="curve"/>
      <point x="292" y="271" type="line"/>
      <point x="292" y="95" type="line" smooth="yes"/>
      <point x="292" y="93"/>
      <point x="291" y="92"/>
      <point x="289" y="92" type="curve"/>
      <point x="289" y="92" type="line"/>
      <point x="289" y="92" type="line"/>
      <point x="175" y="92" type="line"/>
      <point x="175" y="92" type="line"/>
      <point x="175" y="92" type="line" smooth="yes"/>
      <point x="174" y="92"/>
      <point x="172" y="93"/>
      <point x="172" y="95" type="curve"/>
      <point x="172" y="611" type="line" smooth="yes"/>
      <point x="172" y="613"/>
      <point x="174" y="614"/>
      <point x="175" y="614" type="curve"/>
      <point x="175" y="614" type="line"/>
      <point x="175" y="614" type="line"/>
      <point x="276" y="614" type="line"/>
      <point x="276" y="614" type="line"/>
      <point x="276" y="614" type="line" smooth="yes"/>
      <point x="278" y="614"/>
      <point x="279" y="613"/>
      <point x="279" y="611" type="curve"/>
      <point x="279" y="469" type="line" smooth="yes"/>
      <point x="279" y="467"/>
      <point x="281" y="465"/>
      <point x="282" y="465" type="curve"/>
      <point x="380" y="465" type="line" smooth="yes"/>
      <point x="381" y="465"/>
      <point x="383" y="467"/>
      <point x="383" y="469" type="curve"/>
      <point x="383" y="611" type="line" smooth="yes"/>
      <point x="383" y="662"/>
      <point x="345" y="704"/>
      <point x="292" y="704" type="curve"/>
      <point x="293" y="704" type="line"/>
      <point x="156" y="704" type="line"/>
      <point x="157" y="704" type="line" smooth="yes"/>
      <point x="105" y="704"/>
      <point x="62" y="662"/>
      <point x="62" y="611" type="curve"/>
      <point x="62" y="93" type="line" smooth="yes"/>
      <point x="62" y="42"/>
      <point x="105" y="0"/>
      <point x="157" y="0" type="curve"/>
      <point x="156" y="0" type="line"/>
      <point x="306" y="0" type="line"/>
      <point x="305" y="0" type="line" smooth="yes"/>
      <point x="358" y="0"/>
      <point x="396" y="42"/>
      <point x="396" y="93" type="curve"/>
      <point x="396" y="93"/>
      <point x="396" y="274"/>
      <point x="396" y="274" type="curve" smooth="yes"/>
    </contour>
  </outline>
</glyph>
<glyph name="H" format="1">
  <advance width="467"/>
  <unicode hex="0048"/>
  <outline>
    <contour>
      <point x="294" y="703" type="line" smooth="yes"/>
      <point x="292" y="703"/>
      <point x="291" y="702"/>
      <point x="291" y="700" type="curve"/>
      <point x="291" y="410" type="line" smooth="yes"/>
      <point x="291" y="408"/>
      <point x="289" y="406"/>
      <point x="287" y="406" type="curve"/>
      <point x="180" y="406" type="line" smooth="yes"/>
      <point x="178" y="406"/>
      <point x="176" y="408"/>
      <point x="176" y="410" type="curve"/>
      <point x="176" y="700" type="line" smooth="yes"/>
      <point x="176" y="702"/>
      <point x="175" y="703"/>
      <point x="173" y="703" type="curve"/>
      <point x="69" y="703" type="line" smooth="yes"/>
      <point x="67" y="703"/>
      <point x="66" y="702"/>
      <point x="66" y="700" type="curve"/>
      <point x="66" y="7" type="line" smooth="yes"/>
      <point x="66" y="5"/>
      <point x="67" y="3"/>
      <point x="69" y="3" type="curve"/>
      <point x="173" y="3" type="line" smooth="yes"/>
      <point x="175" y="3"/>
      <point x="176" y="5"/>
      <point x="176" y="7" type="curve"/>
      <point x="176" y="313" type="line" smooth="yes"/>
      <point x="177" y="314"/>
      <point x="178" y="316"/>
      <point x="180" y="316" type="curve"/>
      <point x="287" y="316" type="line" smooth="yes"/>
      <point x="289" y="316"/>
      <point x="291" y="314"/>
      <point x="291" y="312" type="curve"/>
      <point x="291" y="7" type="line" smooth="yes"/>
      <point x="291" y="5"/>
      <point x="292" y="3"/>
      <point x="294" y="3" type="curve"/>
      <point x="397" y="3" type="line" smooth="yes"/>
      <point x="399" y="3"/>
      <point x="401" y="5"/>
      <point x="401" y="7" type="curve"/>
      <point x="401" y="700" type="line" smooth="yes"/>
      <point x="401" y="702"/>
      <point x="399" y="703"/>
      <point x="397" y="703" type="curve"/>
    </contour>
  </outline>
</glyph>
<glyph name="I" format="1">
  <advance width="330"/>
  <unicode hex="0049"/>
  <outline>
    <contour>
      <point x="30" y="704" type="line" smooth="yes"/>
      <point x="28" y="704"/>
      <point x="27" y="702"/>
      <point x="27" y="700" type="curve" smooth="yes"/>
      <point x="27" y="618" type="line" smooth="yes"/>
      <point x="27" y="616"/>
      <point x="28" y="614"/>
      <point x="30" y="614" type="curve" smooth="yes"/>
      <point x="110" y="614" type="line"/>
      <point x="110" y="92" type="line"/>
      <point x="30" y="92" type="line" smooth="yes"/>
      <point x="28" y="92"/>
      <point x="27" y="90"/>
      <point x="27" y="88" type="curve" smooth="yes"/>
      <point x="27" y="4" type="line" smooth="yes"/>
      <point x="27" y="2"/>
      <point x="28" y="0"/>
      <point x="30" y="0" type="curve" smooth="yes"/>
      <point x="299" y="0" type="line"/>
      <point x="300" y="0"/>
      <point x="302" y="2"/>
      <point x="302" y="4" type="curve" smooth="yes"/>
      <point x="302" y="88" type="line" smooth="yes"/>
      <point x="302" y="90"/>
      <point x="300" y="92"/>
      <point x="298" y="92" type="curve" smooth="yes"/>
      <point x="220" y="92" type="line"/>
      <point x="220" y="614" type="line"/>
      <point x="298" y="614" type="line" smooth="yes"/>
      <point x="300" y="614"/>
      <point x="302" y="616"/>
      <point x="302" y="618" type="curve" smooth="yes"/>
      <point x="302" y="700" type="line" smooth="yes"/>
      <point x="302" y="702"/>
      <point x="300" y="704"/>
      <point x="299" y="704" type="curve"/>
    </contour>
    <contour>
      <point x="163" y="745" type="move" name="Top"/>
    </contour>
  </outline>
</glyph>
<glyph name="L" format="1">
  <advance width="339"/>
  <unicode hex="004C"/>
  <outline>
    <contour>
      <point x="179" y="93" type="line" smooth="yes"/>
      <point x="177" y="93"/>
      <point x="176" y="94"/>
      <point x="176" y="96" type="curve"/>
      <point x="176" y="698" type="line" smooth="yes"/>
      <point x="176" y="700"/>
      <point x="174" y="701"/>
      <point x="172" y="701" type="curve"/>
      <point x="70" y="701" type="line" smooth="yes"/>
      <point x="68" y="701"/>
      <point x="66" y="700"/>
      <point x="66" y="698" type="curve"/>
      <point x="66" y="5" type="line" smooth="yes"/>
      <point x="66" y="3"/>
      <point x="68" y="1"/>
      <point x="70" y="1" type="curve"/>
      <point x="79" y="1" type="line"/>
      <point x="316" y="1" type="line" smooth="yes"/>
      <point x="318" y="1"/>
      <point x="319" y="3"/>
      <point x="320" y="5" type="curve"/>
      <point x="320" y="89" type="line" smooth="yes"/>
      <point x="320" y="91"/>
      <point x="318" y="93"/>
      <point x="316" y="93" type="curve"/>
    </contour>
  </outline>
</glyph>
<glyph name="M" format="1">
  <advance width="636"/>
  <unicode hex="004D"/>
  <outline>
    <contour>
      <point x="574" y="5" type="line" smooth="yes"/>
      <point x="574" y="3"/>
      <point x="572" y="2"/>
      <point x="570" y="2" type="curve" smooth="yes"/>
      <point x="470" y="2" type="line" smooth="yes"/>
      <point x="468" y="2"/>
      <point x="466" y="3"/>
      <point x="466" y="5" type="curve" smooth="yes"/>
      <point x="466" y="577" type="line" smooth="yes"/>
      <point x="466" y="594"/>
      <point x="456" y="613"/>
      <point x="432" y="613" type="curve" smooth="yes"/>
      <point x="412" y="613" type="line" smooth="yes"/>
      <point x="388" y="613"/>
      <point x="366" y="605"/>
      <point x="366" y="577" type="curve" smooth="yes"/>
      <point x="366" y="3" type="line" smooth="yes"/>
      <point x="366" y="1"/>
      <point x="364" y="0"/>
      <point x="362" y="0" type="curve" smooth="yes"/>
      <point x="276" y="0" type="line" smooth="yes"/>
      <point x="274" y="0"/>
      <point x="272" y="1"/>
      <point x="272" y="3" type="curve" smooth="yes"/>
      <point x="272" y="577" type="line" smooth="yes"/>
      <point x="272" y="605"/>
      <point x="250" y="613"/>
      <point x="226" y="613" type="curve" smooth="yes"/>
      <point x="206" y="613" type="line" smooth="yes"/>
      <point x="182" y="613"/>
      <point x="172" y="594"/>
      <point x="172" y="577" type="curve" smooth="yes"/>
      <point x="172" y="5" type="line" smooth="yes"/>
      <point x="172" y="3"/>
      <point x="170" y="2"/>
      <point x="168" y="2" type="curve" smooth="yes"/>
      <point x="68" y="2" type="line" smooth="yes"/>
      <point x="66" y="2"/>
      <point x="64" y="3"/>
      <point x="64" y="5" type="curve" smooth="yes"/>
      <point x="64" y="608" type="line" smooth="yes"/>
      <point x="64" y="660"/>
      <point x="104" y="703"/>
      <point x="156" y="703" type="curve" smooth="yes"/>
      <point x="243" y="703" type="line"/>
      <point x="302" y="702"/>
      <point x="315" y="649"/>
      <point x="319" y="628" type="curve" smooth="yes"/>
      <point x="324" y="653"/>
      <point x="338" y="702"/>
      <point x="395" y="703" type="curve"/>
      <point x="482" y="703" type="line" smooth="yes"/>
      <point x="534" y="703"/>
      <point x="574" y="660"/>
      <point x="574" y="608" type="curve" smooth="yes"/>
    </contour>
  </outline>
</glyph>
<glyph name="O" format="1">
  <advance width="463"/>
  <unicode hex="004F"/>
  <outline>
    <contour>
      <point x="291" y="94" type="line"/>
      <point x="291" y="92"/>
      <point x="290" y="91"/>
      <point x="288" y="90" type="curve"/>
      <point x="288" y="90" type="line"/>
      <point x="176" y="90" type="line"/>
      <point x="176" y="90" type="line" smooth="yes"/>
      <point x="174" y="91"/>
      <point x="172" y="92"/>
      <point x="172" y="94" type="curve"/>
      <point x="172" y="611" type="line" smooth="yes"/>
      <point x="172" y="613"/>
      <point x="174" y="614"/>
      <point x="176" y="614" type="curve"/>
      <point x="176" y="614" type="line"/>
      <point x="176" y="614" type="line"/>
      <point x="288" y="614" type="line"/>
      <point x="288" y="614" type="line"/>
      <point x="288" y="614" type="line" smooth="yes"/>
      <point x="290" y="614"/>
      <point x="291" y="613"/>
      <point x="291" y="611" type="curve" smooth="yes"/>
    </contour>
    <contour>
      <point x="156" y="704" type="line" smooth="yes"/>
      <point x="104" y="704"/>
      <point x="62" y="662"/>
      <point x="62" y="610" type="curve"/>
      <point x="62" y="94" type="line" smooth="yes"/>
      <point x="62" y="42"/>
      <point x="104" y="0"/>
      <point x="156" y="0" type="curve"/>
      <point x="155" y="0" type="line"/>
      <point x="307" y="0" type="line"/>
      <point x="306" y="0" type="line" smooth="yes"/>
      <point x="358" y="0"/>
      <point x="401" y="42"/>
      <point x="401" y="94" type="curve"/>
      <point x="401" y="610" type="line" smooth="yes"/>
      <point x="401" y="662"/>
      <point x="358" y="704"/>
      <point x="306" y="704" type="curve"/>
    </contour>
    <contour>
      <point x="216" y="729" type="move" name="Top"/>
    </contour>
    <contour>
      <point x="341" y="369" type="move" name="Right"/>
    </contour>
  </outline>
</glyph>
<glyph name="Q" format="1">
  <advance width="460"/>
  <unicode hex="0051"/>
  <outline>
    <contour>
      <point x="176" y="92" type="line"/>
      <point x="176" y="92" type="line"/>
      <point x="176" y="92" type="line" smooth="yes"/>
      <point x="174" y="92"/>
      <point x="172" y="94"/>
      <point x="172" y="96" type="curve"/>
      <point x="172" y="610" type="line" smooth="yes"/>
      <point x="172" y="613"/>
      <point x="174" y="614"/>
      <point x="176" y="614" type="curve"/>
      <point x="176" y="614" type="line"/>
      <point x="284" y="614" type="line"/>
      <point x="284" y="614" type="line" smooth="yes"/>
      <point x="286" y="614"/>
      <point x="288" y="613"/>
      <point x="288" y="610" type="curve"/>
      <point x="288" y="96" type="line" smooth="yes"/>
      <point x="288" y="94"/>
      <point x="286" y="92"/>
      <point x="284" y="92" type="curve"/>
      <point x="284" y="92" type="line"/>
      <point x="284" y="92" type="line"/>
    </contour>
    <contour>
      <point x="398" y="598" type="line" smooth="yes"/>
      <point x="398" y="657"/>
      <point x="351" y="704"/>
      <point x="292" y="704" type="curve"/>
      <point x="168" y="704" type="line" smooth="yes"/>
      <point x="109" y="704"/>
      <point x="62" y="657"/>
      <point x="62" y="598" type="curve"/>
      <point x="62" y="106" type="line" smooth="yes"/>
      <point x="62" y="48"/>
      <point x="109" y="0"/>
      <point x="168" y="0" type="curve"/>
      <point x="167" y="0" type="line"/>
      <point x="219" y="0" type="line"/>
      <point x="245" y="-63" type="line" smooth="yes"/>
      <point x="246" y="-66"/>
      <point x="249" y="-67"/>
      <point x="251" y="-67" type="curve"/>
      <point x="333" y="-67" type="line" smooth="yes"/>
      <point x="335" y="-67"/>
      <point x="335" y="-65"/>
      <point x="334" y="-63" type="curve"/>
      <point x="313" y="2" type="line" smooth="yes"/>
      <point x="362" y="12"/>
      <point x="398" y="55"/>
      <point x="398" y="106" type="curve"/>
    </contour>
  </outline>
</glyph>
<glyph name="W" format="1">
  <advance width="631"/>
  <unicode hex="0057"/>
  <outline>
    <contour>
      <point x="574" y="95" type="line"/>
      <point x="574" y="43"/>
      <point x="534" y="0"/>
      <point x="482" y="0" type="curve" smooth="yes"/>
      <point x="395" y="0" type="line"/>
      <point x="338" y="1"/>
      <point x="324" y="50"/>
      <point x="319" y="75" type="curve"/>
      <point x="315" y="54"/>
      <point x="302" y="1"/>
      <point x="243" y="0" type="curve"/>
      <point x="156" y="0" type="line" smooth="yes"/>
      <point x="104" y="0"/>
      <point x="64" y="43"/>
      <point x="64" y="95" type="curve" smooth="yes"/>
      <point x="64" y="699" type="line" smooth="yes"/>
      <point x="64" y="701"/>
      <point x="66" y="702"/>
      <point x="68" y="702" type="curve" smooth="yes"/>
      <point x="168" y="702" type="line" smooth="yes"/>
      <point x="170" y="702"/>
      <point x="172" y="701"/>
      <point x="172" y="699" type="curve" smooth="yes"/>
      <point x="172" y="126" type="line" smooth="yes"/>
      <point x="172" y="109"/>
      <point x="182" y="90"/>
      <point x="206" y="90" type="curve" smooth="yes"/>
      <point x="226" y="90" type="line" smooth="yes"/>
      <point x="250" y="90"/>
      <point x="272" y="98"/>
      <point x="272" y="126" type="curve" smooth="yes"/>
      <point x="272" y="701" type="line" smooth="yes"/>
      <point x="272" y="703"/>
      <point x="274" y="704"/>
      <point x="276" y="704" type="curve" smooth="yes"/>
      <point x="362" y="704" type="line" smooth="yes"/>
      <point x="364" y="704"/>
      <point x="366" y="703"/>
      <point x="366" y="701" type="curve" smooth="yes"/>
      <point x="366" y="126" type="line" smooth="yes"/>
      <point x="366" y="98"/>
      <point x="388" y="90"/>
      <point x="412" y="90" type="curve" smooth="yes"/>
      <point x="432" y="90" type="line" smooth="yes"/>
      <point x="456" y="90"/>
      <point x="466" y="109"/>
      <point x="466" y="126" type="curve" smooth="yes"/>
      <point x="466" y="699" type="line" smooth="yes"/>
      <point x="466" y="701"/>
      <point x="468" y="702"/>
      <point x="470" y="702" type="curve" smooth="yes"/>
      <point x="570" y="702" type="line" smooth="yes"/>
      <point x="572" y="702"/>
      <point x="574" y="701"/>
      <point x="574" y="699" type="curve" smooth="yes"/>
    </contour>
  </outline>
</glyph>
<glyph name="X" format="1">
  <advance width="452"/>
  <unicode hex="0058"/>
  <outline>
    <contour>
      <point x="315" y="370" type="curve"/>
      <point x="329" y="380"/>
      <point x="351" y="398"/>
      <point x="384" y="444" type="curve" smooth="yes"/>
      <point x="385" y="445"/>
      <point x="386" y="447"/>
      <point x="386" y="448" type="curve"/>
      <point x="386" y="695" type="line" smooth="yes"/>
      <point x="386" y="697"/>
      <point x="385" y="699"/>
      <point x="383" y="699" type="curve"/>
      <point x="278" y="699" type="line" smooth="yes"/>
      <point x="277" y="699"/>
      <point x="277" y="698"/>
      <point x="276" y="698" type="curve"/>
      <point x="276" y="446" type="line" smooth="yes"/>
      <point x="276" y="436"/>
      <point x="241" y="388"/>
      <point x="226" y="388" type="curve" smooth="yes"/>
      <point x="211" y="388"/>
      <point x="175" y="436"/>
      <point x="175" y="446" type="curve"/>
      <point x="175" y="698" type="line" smooth="yes"/>
      <point x="174" y="698"/>
      <point x="174" y="699"/>
      <point x="173" y="699" type="curve"/>
      <point x="69" y="699" type="line" smooth="yes"/>
      <point x="67" y="699"/>
      <point x="66" y="697"/>
      <point x="65" y="695" type="curve"/>
      <point x="65" y="448" type="line" smooth="yes"/>
      <point x="66" y="447"/>
      <point x="67" y="445"/>
      <point x="68" y="444" type="curve" smooth="yes"/>
      <point x="101" y="398"/>
      <point x="123" y="380"/>
      <point x="137" y="370" type="curve" smooth="yes"/>
      <point x="122" y="362"/>
      <point x="84" y="345"/>
      <point x="51" y="301" type="curve"/>
      <point x="51" y="2" type="line" smooth="yes"/>
      <point x="51" y="0"/>
      <point x="52" y="-1"/>
      <point x="54" y="-1" type="curve"/>
      <point x="157" y="-1" type="line" smooth="yes"/>
      <point x="159" y="-1"/>
      <point x="161" y="0"/>
      <point x="161" y="2" type="curve"/>
      <point x="161" y="282" type="line" smooth="yes"/>
      <point x="161" y="296"/>
      <point x="211" y="340"/>
      <point x="226" y="340" type="curve" smooth="yes"/>
      <point x="241" y="340"/>
      <point x="291" y="296"/>
      <point x="291" y="282" type="curve" smooth="yes"/>
      <point x="291" y="267"/>
      <point x="290" y="2"/>
      <point x="290" y="2" type="curve" smooth="yes"/>
      <point x="290" y="0"/>
      <point x="292" y="-1"/>
      <point x="294" y="-1" type="curve"/>
      <point x="398" y="-1" type="line" smooth="yes"/>
      <point x="399" y="-1"/>
      <point x="401" y="0"/>
      <point x="401" y="2" type="curve"/>
      <point x="401" y="301" type="line" smooth="yes"/>
      <point x="368" y="345"/>
      <point x="330" y="362"/>
    </contour>
  </outline>
</glyph>
<glyph name="Y" format="1">
  <advance width="445"/>
  <unicode hex="0059"/>
  <outline>
    <contour>
      <point x="282" y="703" type="line" smooth="yes"/>
      <point x="280" y="703"/>
      <point x="278" y="702"/>
      <point x="278" y="700" type="curve"/>
      <point x="278" y="428" type="line" smooth="yes"/>
      <point x="278" y="418"/>
      <point x="238" y="370"/>
      <point x="223" y="370" type="curve" smooth="yes"/>
      <point x="208" y="370"/>
      <point x="167" y="413"/>
      <point x="167" y="428" type="curve"/>
      <point x="167" y="700" type="line" smooth="yes"/>
      <point x="167" y="702"/>
      <point x="166" y="703"/>
      <point x="164" y="703" type="curve"/>
      <point x="70" y="703" type="line" smooth="yes"/>
      <point x="68" y="703"/>
      <point x="66" y="702"/>
      <point x="66" y="700" type="curve"/>
      <point x="66" y="413" type="line" smooth="yes"/>
      <point x="66" y="401"/>
      <point x="117" y="319"/>
      <point x="168" y="278" type="curve"/>
      <point x="168" y="3" type="line" smooth="yes"/>
      <point x="168" y="1"/>
      <point x="170" y="-1"/>
      <point x="172" y="-1" type="curve"/>
      <point x="274" y="-1" type="line" smooth="yes"/>
      <point x="276" y="0"/>
      <point x="277" y="1"/>
      <point x="277" y="3" type="curve"/>
      <point x="277" y="278" type="line" smooth="yes"/>
      <point x="328" y="321"/>
      <point x="379" y="403"/>
      <point x="379" y="413" type="curve"/>
      <point x="379" y="700" type="line" smooth="yes"/>
      <point x="379" y="702"/>
      <point x="378" y="703"/>
      <point x="376" y="703" type="curve"/>
    </contour>
    <contour>
      <point x="217" y="729" type="move" name="Top"/>
    </contour>
  </outline>
</glyph>
<glyph name="Z" format="1">
  <advance width="448"/>
  <unicode hex="005A"/>
  <outline>
    <contour>
      <point x="70" y="704" type="line"/>
      <point x="68" y="704"/>
      <point x="67" y="703"/>
      <point x="67" y="701" type="curve"/>
      <point x="67" y="533" type="line"/>
      <point x="67" y="531"/>
      <point x="68" y="530"/>
      <point x="70" y="530" type="curve"/>
      <point x="167" y="530" type="line"/>
      <point x="169" y="530"/>
      <point x="171" y="531"/>
      <point x="171" y="533" type="curve"/>
      <point x="171" y="611" type="line"/>
      <point x="171" y="612"/>
      <point x="172" y="614"/>
      <point x="174" y="614" type="curve"/>
      <point x="290" y="614" type="line"/>
      <point x="293" y="614"/>
      <point x="293" y="612"/>
      <point x="293" y="610" type="curve" smooth="yes"/>
      <point x="293" y="610"/>
      <point x="37" y="130"/>
      <point x="35" y="126" type="curve" smooth="yes"/>
      <point x="31" y="119"/>
      <point x="31" y="111"/>
      <point x="31" y="103" type="curve"/>
      <point x="32" y="7" type="line"/>
      <point x="32" y="3"/>
      <point x="33" y="0"/>
      <point x="38" y="0" type="curve"/>
      <point x="408" y="0" type="line"/>
      <point x="412" y="0"/>
      <point x="414" y="3"/>
      <point x="414" y="7" type="curve"/>
      <point x="414" y="195" type="line"/>
      <point x="414" y="197"/>
      <point x="412" y="198"/>
      <point x="410" y="198" type="curve"/>
      <point x="313" y="198" type="line"/>
      <point x="311" y="198"/>
      <point x="310" y="197"/>
      <point x="310" y="195" type="curve"/>
      <point x="311" y="97" type="line"/>
      <point x="311" y="96" type="line"/>
      <point x="310" y="95"/>
      <point x="309" y="93"/>
      <point x="307" y="93" type="curve"/>
      <point x="151" y="92" type="line"/>
      <point x="148" y="92"/>
      <point x="147" y="96"/>
      <point x="149" y="99" type="curve" smooth="yes"/>
      <point x="150" y="101"/>
      <point x="387" y="558"/>
      <point x="412" y="612" type="curve" smooth="yes"/>
      <point x="413" y="615"/>
      <point x="414" y="621"/>
      <point x="414" y="626" type="curve"/>
      <point x="414" y="701" type="line"/>
      <point x="414" y="703"/>
      <point x="413" y="704"/>
      <point x="411" y="704" type="curve"/>
    </contour>
  </outline>
</glyph>
<glyph name="backslash" format="1">
  <advance width="460"/>
  <unicode hex="005C"/>
  <outline>
    <contour>
      <point x="324" y="3" type="line"/>
      <point x="325" y="1"/>
      <point x="325" y="0"/>
      <point x="328" y="0" type="curve" smooth="yes"/>
      <point x="406" y="0" type="line" smooth="yes"/>
      <point x="409" y="0"/>
      <point x="410" y="1"/>
      <point x="410" y="3" type="curve"/>
      <point x="136" y="698" type="line" smooth="yes"/>
      <point x="135" y="700"/>
      <point x="134" y="701"/>
      <point x="131" y="701" type="curve" smooth="yes"/>
      <point x="54" y="701" type="line" smooth="yes"/>
      <point x="51" y="701"/>
      <point x="50" y="700"/>
      <point x="50" y="698" type="curve"/>
    </contour>
  </outline>
</glyph>
<glyph name="bracketright" format="1">
  <advance width="303"/>
  <unicode hex="005D"/>
  <outline>
    <contour>
      <point x="53" y="700" type="line"/>
      <point x="52" y="700"/>
      <point x="50" y="698"/>
      <point x="50" y="696" type="curve" smooth="yes"/>
      <point x="50" y="636" type="line" smooth="yes"/>
      <point x="50" y="634"/>
      <point x="52" y="632"/>
      <point x="54" y="632" type="curve" smooth="yes"/>
      <point x="158" y="632" type="line"/>
      <point x="158" y="68" type="line"/>
      <point x="54" y="68" type="line" smooth="yes"/>
      <point x="52" y="68"/>
      <point x="50" y="66"/>
      <point x="50" y="64" type="curve" smooth="yes"/>
      <point x="50" y="4" type="line" smooth="yes"/>
      <point x="50" y="2"/>
      <point x="52" y="0"/>
      <point x="53" y="0" type="curve"/>
      <point x="250" y="0" type="line" smooth="yes"/>
      <point x="252" y="0"/>
      <point x="253" y="2"/>
      <point x="253" y="4" type="curve" smooth="yes"/>
      <point x="252" y="696" type="line" smooth="yes"/>
      <point x="252" y="698"/>
      <point x="251" y="700"/>
      <point x="249" y="700" type="curve" smooth="yes"/>
    </contour>
  </outline>
</glyph>
<glyph name="underscore" format="1">
  <advance width="557"/>
  <unicode hex="005F"/>
  <outline>
    <contour>
      <point x="54" y="-90" type="line"/>
      <point x="55" y="-90"/>
      <point x="50" y="-92"/>
      <point x="50" y="-94" type="curve" smooth="yes"/>
      <point x="50" y="-154" type="line" smooth="yes"/>
      <point x="50" y="-156"/>
      <point x="52" y="-158"/>
      <point x="53" y="-158" type="curve"/>
      <point x="504" y="-158" type="line"/>
      <point x="505" y="-158"/>
      <point x="507" y="-156"/>
      <point x="507" y="-154" type="curve" smooth="yes"/>
      <point x="507" y="-94" type="line" smooth="yes"/>
      <point x="507" y="-92"/>
      <point x="505" y="-90"/>
      <point x="503" y="-90" type="curve" smooth="yes"/>
    </contour>
  </outline>
</glyph>
<glyph name="grave" format="1">
  <advance width="256"/>
  <unicode hex="0060"/>
  <outline>
    <contour>
      <point x="116" y="564" type="line"/>
      <point x="117" y="562"/>
      <point x="117" y="561"/>
      <point x="120" y="561" type="curve" smooth="yes"/>
      <point x="187" y="561" type="line" smooth="yes"/>
      <point x="190" y="561"/>
      <point x="191" y="562"/>
      <point x="191" y="564" type="curve"/>
      <point x="131" y="728" type="line" smooth="yes"/>
      <point x="130" y="730"/>
      <point x="129" y="731"/>
      <point x="126" y="731" type="curve" smooth="yes"/>
      <point x="60" y="731" type="line" smooth="yes"/>
      <point x="57" y="731"/>
      <point x="56" y="730"/>
      <point x="56" y="728" type="curve"/>
    </contour>
    <contour>
      <point x="155" y="521" type="move" name="_Top"/>
    </contour>
  </outline>
</glyph>
<glyph name="b" format="1">
  <advance width="440"/>
  <unicode hex="0062"/>
  <outline>
    <contour>
      <point x="58" y="728" type="line" smooth="yes"/>
      <point x="56" y="728"/>
      <point x="54" y="727"/>
      <point x="54" y="725" type="curve" smooth="yes"/>
      <point x="54" y="96" type="line"/>
      <point x="54" y="94" type="line" smooth="yes"/>
      <point x="54" y="42"/>
      <point x="103" y="0"/>
      <point x="155" y="0" type="curve" smooth="yes"/>
      <point x="296" y="0" type="line" smooth="yes"/>
      <point x="348" y="0"/>
      <point x="388" y="42"/>
      <point x="388" y="94" type="curve" smooth="yes"/>
      <point x="388" y="400" type="line" smooth="yes"/>
      <point x="388" y="452"/>
      <point x="343" y="494"/>
      <point x="291" y="494" type="curve" smooth="yes"/>
      <point x="159" y="494" type="line"/>
      <point x="159" y="725" type="line"/>
      <point x="158" y="727"/>
      <point x="157" y="728"/>
      <point x="155" y="728" type="curve" smooth="yes"/>
    </contour>
    <contour>
      <point x="283" y="94" type="line" smooth="yes"/>
      <point x="283" y="92"/>
      <point x="282" y="91"/>
      <point x="280" y="90" type="curve"/>
      <point x="163" y="90" type="line"/>
      <point x="161" y="91"/>
      <point x="159" y="91"/>
      <point x="159" y="93" type="curve" smooth="yes"/>
      <point x="159" y="404" type="line"/>
      <point x="159" y="405"/>
      <point x="161" y="406"/>
      <point x="163" y="406" type="curve" smooth="yes"/>
      <point x="280" y="406" type="line" smooth="yes"/>
      <point x="282" y="406"/>
      <point x="283" y="405"/>
      <point x="283" y="403" type="curve" smooth="yes"/>
    </contour>
  </outline>
</glyph>
<glyph name="c" format="1">
  <advance width="411"/>
  <unicode hex="0063"/>
  <outline>
    <contour>
      <point x="273" y="494" type="line"/>
      <point x="145" y="494" type="line"/>
      <point x="146" y="494" type="line"/>
      <point x="94" y="494"/>
      <point x="52" y="452"/>
      <point x="52" y="400" type="curve" smooth="yes"/>
      <point x="52" y="94" type="line" smooth="yes"/>
      <point x="52" y="42"/>
      <point x="94" y="0"/>
      <point x="146" y="0" type="curve"/>
      <point x="145" y="0" type="line"/>
      <point x="273" y="0" type="line"/>
      <point x="272" y="0" type="line"/>
      <point x="324" y="0"/>
      <point x="363" y="42"/>
      <point x="363" y="94" type="curve" smooth="yes"/>
      <point x="363" y="178" type="line" smooth="yes"/>
      <point x="363" y="180"/>
      <point x="361" y="182"/>
      <point x="360" y="182" type="curve"/>
      <point x="267" y="182" type="line" smooth="yes"/>
      <point x="265" y="182"/>
      <point x="263" y="180"/>
      <point x="263" y="178" type="curve" smooth="yes"/>
      <point x="263" y="93" type="line"/>
      <point x="263" y="92"/>
      <point x="262" y="90"/>
      <point x="260" y="90" type="curve"/>
      <point x="260" y="90" type="line"/>
      <point x="260" y="90" type="line"/>
      <point x="160" y="90" type="line"/>
      <point x="160" y="90" type="line"/>
      <point x="160" y="90" type="line"/>
      <point x="158" y="90"/>
      <point x="157" y="92"/>
      <point x="157" y="93" type="curve"/>
      <point x="157" y="402" type="line" smooth="yes"/>
      <point x="157" y="404"/>
      <point x="158" y="406"/>
      <point x="160" y="406" type="curve"/>
      <point x="160" y="406" type="line"/>
      <point x="160" y="406" type="line"/>
      <point x="260" y="406" type="line"/>
      <point x="260" y="406" type="line"/>
      <point x="260" y="406" type="line"/>
      <point x="262" y="406"/>
      <point x="263" y="404"/>
      <point x="263" y="402" type="curve" smooth="yes"/>
      <point x="263" y="331" type="line" smooth="yes"/>
      <point x="263" y="329"/>
      <point x="265" y="328"/>
      <point x="266" y="328" type="curve"/>
      <point x="359" y="328" type="line" smooth="yes"/>
      <point x="361" y="328"/>
      <point x="363" y="329"/>
      <point x="363" y="331" type="curve" smooth="yes"/>
      <point x="363" y="400" type="line" smooth="yes"/>
      <point x="363" y="452"/>
      <point x="324" y="494"/>
      <point x="272" y="494" type="curve"/>
    </contour>
    <contour>
      <point x="213" y="0" type="move" name="Bottom"/>
    </contour>
  </outline>
</glyph>
<glyph name="f" format="1">
  <advance width="384"/>
  <unicode hex="0066"/>
  <outline>
    <contour>
      <point x="315" y="493" type="curve"/>
      <point x="194" y="493" type="line"/>
      <point x="194" y="618" type="line"/>
      <point x="194" y="619"/>
      <point x="196" y="621"/>
      <point x="197" y="621" type="curve"/>
      <point x="290" y="621" type="line"/>
      <point x="291" y="621"/>
      <point x="293" y="619"/>
      <point x="293" y="618" type="curve"/>
      <point x="293" y="560" type="line" smooth="yes"/>
      <point x="293" y="558"/>
      <point x="294" y="557"/>
      <point x="296" y="557" type="curve" smooth="yes"/>
      <point x="385" y="557" type="line" smooth="yes"/>
      <point x="387" y="557"/>
      <point x="388" y="558"/>
      <point x="388" y="560" type="curve" smooth="yes"/>
      <point x="388" y="609" type="line" smooth="yes"/>
      <point x="388" y="662"/>
      <point x="346" y="704"/>
      <point x="294" y="704" type="curve" smooth="yes"/>
      <point x="182" y="704" type="line"/>
      <point x="130" y="703"/>
      <point x="89" y="661"/>
      <point x="89" y="609" type="curve" smooth="yes"/>
      <point x="89" y="493" type="line"/>
      <point x="53" y="493" type="line" smooth="yes"/>
      <point x="51" y="493"/>
      <point x="50" y="491"/>
      <point x="50" y="489" type="curve" smooth="yes"/>
      <point x="50" y="418" type="line" smooth="yes"/>
      <point x="50" y="416"/>
      <point x="51" y="415"/>
      <point x="53" y="414" type="curve"/>
      <point x="89" y="414" type="line"/>
      <point x="89" y="3" type="line" smooth="yes"/>
      <point x="89" y="1"/>
      <point x="90" y="0"/>
      <point x="92" y="0" type="curve" smooth="yes"/>
      <point x="191" y="0" type="line" smooth="yes"/>
      <point x="193" y="0"/>
      <point x="194" y="1"/>
      <point x="194" y="3" type="curve" smooth="yes"/>
      <point x="194" y="414" type="line"/>
      <point x="315" y="414" type="line"/>
      <point x="317" y="415"/>
      <point x="318" y="416"/>
      <point x="318" y="418" type="curve" smooth="yes"/>
      <point x="318" y="489" type="line" smooth="yes"/>
      <point x="318" y="491"/>
      <point x="317" y="493"/>
    </contour>
    <contour>
      <point x="314" y="408" type="move" name="Right"/>
    </contour>
  </outline>
</glyph>
<glyph name="i" format="1">
  <advance width="222"/>
  <unicode hex="0069"/>
  <outline>
    <contour>
      <point x="65" y="494" type="line"/>
      <point x="63" y="494"/>
      <point x="61" y="493"/>
      <point x="61" y="491" type="curve"/>
      <point x="61" y="4" type="line"/>
      <point x="61" y="2"/>
      <point x="63" y="0"/>
      <point x="65" y="0" type="curve"/>
      <point x="162" y="0" type="line"/>
      <point x="164" y="0"/>
      <point x="165" y="2"/>
      <point x="166" y="4" type="curve"/>
      <point x="166" y="491" type="line"/>
      <point x="165" y="493"/>
      <point x="164" y="494"/>
      <point x="162" y="494" type="curve"/>
    </contour>
    <contour>
      <point x="60" y="704" type="line"/>
      <point x="58" y="704"/>
      <point x="56" y="703"/>
      <point x="56" y="701" type="curve"/>
      <point x="56" y="602" type="line"/>
      <point x="56" y="600"/>
      <point x="58" y="598"/>
      <point x="60" y="598" type="curve"/>
      <point x="162" y="598" type="line"/>
      <point x="164" y="598"/>
      <point x="165" y="600"/>
      <point x="166" y="602" type="curve"/>
      <point x="166" y="701" type="line"/>
      <point x="165" y="703"/>
      <point x="164" y="704"/>
      <point x="162" y="704" type="curve"/>
    </contour>
  </outline>
</glyph>
<glyph name="j" format="1">
  <advance width="215"/>
  <unicode hex="006A"/>
  <outline>
    <contour>
      <point x="55" y="704" type="line" smooth="yes"/>
      <point x="53" y="704"/>
      <point x="51" y="703"/>
      <point x="51" y="701" type="curve" smooth="yes"/>
      <point x="51" y="622" type="line" smooth="yes"/>
      <point x="51" y="620"/>
      <point x="53" y="618"/>
      <point x="55" y="618" type="curve" smooth="yes"/>
      <point x="157" y="618" type="line" smooth="yes"/>
      <point x="159" y="618"/>
      <point x="160" y="620"/>
      <point x="161" y="622" type="curve"/>
      <point x="161" y="701" type="line"/>
      <point x="160" y="703"/>
      <point x="159" y="704"/>
      <point x="157" y="704" type="curve" smooth="yes"/>
    </contour>
    <contour>
      <point x="67" y="-198" type="line" smooth="yes"/>
      <point x="119" y="-198"/>
      <point x="161" y="-156"/>
      <point x="161" y="-103" type="curve" smooth="yes"/>
      <point x="161" y="491" type="line" smooth="yes"/>
      <point x="161" y="493"/>
      <point x="160" y="494"/>
      <point x="158" y="494" type="curve" smooth="yes"/>
      <point x="59" y="494" type="line" smooth="yes"/>
      <point x="57" y="494"/>
      <point x="56" y="493"/>
      <point x="56" y="491" type="curve" smooth="yes"/>
      <point x="56" y="-111" type="line"/>
      <point x="56" y="-112"/>
      <point x="54" y="-114"/>
      <point x="53" y="-114" type="curve"/>
      <point x="-16" y="-114"/>
      <point x="-25" y="-114"/>
      <point x="-25" y="-114" type="curve"/>
      <point x="-27" y="-114"/>
      <point x="-28" y="-115"/>
      <point x="-28" y="-117" type="curve" smooth="yes"/>
      <point x="-28" y="-195" type="line" smooth="yes"/>
      <point x="-28" y="-197"/>
      <point x="-27" y="-198"/>
      <point x="-25" y="-198" type="curve" smooth="yes"/>
    </contour>
  </outline>
</glyph>
<glyph name="k" format="1">
  <advance width="467"/>
  <unicode hex="006B"/>
  <outline>
    <contour>
      <point x="308" y="302" type="curve" smooth="yes"/>
      <point x="326" y="304"/>
      <point x="365" y="315"/>
      <point x="365" y="380" type="curve" smooth="yes"/>
      <point x="365" y="491" type="line" smooth="yes"/>
      <point x="365" y="493"/>
      <point x="364" y="494"/>
      <point x="362" y="494" type="curve" smooth="yes"/>
      <point x="268" y="494" type="line" smooth="yes"/>
      <point x="266" y="494"/>
      <point x="265" y="493"/>
      <point x="265" y="491" type="curve" smooth="yes"/>
      <point x="265" y="405" type="line" smooth="yes"/>
      <point x="265" y="330"/>
      <point x="231" y="327"/>
      <point x="212" y="327" type="curve" smooth="yes"/>
      <point x="165" y="327" type="line" smooth="yes"/>
      <point x="163" y="327"/>
      <point x="161" y="328"/>
      <point x="161" y="330" type="curve" smooth="yes"/>
      <point x="161" y="725" type="line" smooth="yes"/>
      <point x="161" y="727"/>
      <point x="160" y="728"/>
      <point x="158" y="728" type="curve" smooth="yes"/>
      <point x="60" y="728" type="line" smooth="yes"/>
      <point x="58" y="728"/>
      <point x="56" y="727"/>
      <point x="56" y="725" type="curve" smooth="yes"/>
      <point x="56" y="4" type="line" smooth="yes"/>
      <point x="56" y="2"/>
      <point x="58" y="0"/>
      <point x="60" y="0" type="curve" smooth="yes"/>
      <point x="158" y="0" type="line"/>
      <point x="159" y="0"/>
      <point x="161" y="2"/>
      <point x="161" y="4" type="curve" smooth="yes"/>
      <point x="161" y="247" type="line" smooth="yes"/>
      <point x="161" y="249"/>
      <point x="162" y="250"/>
      <point x="164" y="251" type="curve"/>
      <point x="262" y="251" type="line" smooth="yes"/>
      <point x="320" y="251"/>
      <point x="315" y="178"/>
      <point x="315" y="178" type="curve"/>
      <point x="315" y="3" type="line" smooth="yes"/>
      <point x="315" y="1"/>
      <point x="316" y="0"/>
      <point x="318" y="0" type="curve" smooth="yes"/>
      <point x="412" y="0" type="line" smooth="yes"/>
      <point x="414" y="0"/>
      <point x="415" y="1"/>
      <point x="415" y="3" type="curve" smooth="yes"/>
      <point x="415" y="219" type="line" smooth="yes"/>
      <point x="415" y="300"/>
      <point x="326" y="303"/>
    </contour>
  </outline>
</glyph>
<glyph name="l" format="1">
  <advance width="217"/>
  <unicode hex="006C"/>
  <outline>
    <contour>
      <point x="60" y="728" type="line" smooth="yes"/>
      <point x="58" y="728"/>
      <point x="56" y="727"/>
      <point x="56" y="725" type="curve" smooth="yes"/>
      <point x="56" y="4" type="line" smooth="yes"/>
      <point x="56" y="2"/>
      <point x="58" y="0"/>
      <point x="60" y="0" type="curve" smooth="yes"/>
      <point x="157" y="0" type="line" smooth="yes"/>
      <point x="159" y="0"/>
      <point x="160" y="2"/>
      <point x="161" y="4" type="curve"/>
      <point x="161" y="725" type="line"/>
      <point x="160" y="727"/>
      <point x="159" y="728"/>
      <point x="157" y="728" type="curve" smooth="yes"/>
    </contour>
    <contour>
      <point x="79" y="397" type="move" name="_Right"/>
    </contour>
  </outline>
</glyph>
<glyph name="m" format="1">
  <advance width="614"/>
  <unicode hex="006D"/>
  <outline>
    <contour>
      <point x="52" y="3" type="line" smooth="yes"/>
      <point x="52" y="1"/>
      <point x="54" y="0"/>
      <point x="56" y="0" type="curve" smooth="yes"/>
      <point x="153" y="0" type="line" smooth="yes"/>
      <point x="155" y="0"/>
      <point x="157" y="1"/>
      <point x="157" y="3" type="curve" smooth="yes"/>
      <point x="157" y="397" type="line" smooth="yes"/>
      <point x="157" y="404"/>
      <point x="158" y="406"/>
      <point x="165" y="406" type="curve"/>
      <point x="219" y="406" type="line" smooth="yes"/>
      <point x="243" y="406"/>
      <point x="262" y="398"/>
      <point x="262" y="370" type="curve" smooth="yes"/>
      <point x="262" y="3" type="line" smooth="yes"/>
      <point x="262" y="1"/>
      <point x="264" y="0"/>
      <point x="266" y="0" type="curve" smooth="yes"/>
      <point x="348" y="0" type="line" smooth="yes"/>
      <point x="350" y="0"/>
      <point x="352" y="1"/>
      <point x="352" y="3" type="curve" smooth="yes"/>
      <point x="352" y="370" type="line" smooth="yes"/>
      <point x="352" y="396"/>
      <point x="375" y="406"/>
      <point x="396" y="406" type="curve" smooth="yes"/>
      <point x="448" y="406" type="line" smooth="yes"/>
      <point x="455" y="406"/>
      <point x="457" y="403"/>
      <point x="457" y="397" type="curve" smooth="yes"/>
      <point x="457" y="3" type="line" smooth="yes"/>
      <point x="457" y="1"/>
      <point x="459" y="0"/>
      <point x="461" y="0" type="curve" smooth="yes"/>
      <point x="558" y="0" type="line" smooth="yes"/>
      <point x="560" y="0"/>
      <point x="562" y="1"/>
      <point x="562" y="3" type="curve" smooth="yes"/>
      <point x="562" y="399" type="line" smooth="yes"/>
      <point x="562" y="451"/>
      <point x="520" y="494"/>
      <point x="468" y="494" type="curve" smooth="yes"/>
      <point x="392" y="494" type="line" smooth="yes"/>
      <point x="315" y="494"/>
      <point x="307" y="446"/>
      <point x="308" y="427" type="curve"/>
      <point x="305" y="446"/>
      <point x="287" y="493"/>
      <point x="226" y="494" type="curve"/>
      <point x="144" y="494" type="line" smooth="yes"/>
      <point x="92" y="494"/>
      <point x="52" y="451"/>
      <point x="52" y="399" type="curve" smooth="yes"/>
    </contour>
  </outline>
</glyph>
<glyph name="q" format="1">
  <advance width="440"/>
  <unicode hex="0071"/>
  <outline>
    <contour>
      <point x="382" y="-198" type="line"/>
      <point x="384" y="-198"/>
      <point x="386" y="-197"/>
      <point x="386" y="-195" type="curve" smooth="yes"/>
      <point x="386" y="398" type="line"/>
      <point x="386" y="400" type="line" smooth="yes"/>
      <point x="386" y="452"/>
      <point x="347" y="494"/>
      <point x="295" y="494" type="curve" smooth="yes"/>
      <point x="144" y="494" type="line" smooth="yes"/>
      <point x="92" y="494"/>
      <point x="52" y="452"/>
      <point x="52" y="400" type="curve" smooth="yes"/>
      <point x="52" y="94" type="line" smooth="yes"/>
      <point x="52" y="42"/>
      <point x="92" y="0"/>
      <point x="144" y="0" type="curve" smooth="yes"/>
      <point x="281" y="0" type="line"/>
      <point x="281" y="-195" type="line"/>
      <point x="282" y="-197"/>
      <point x="283" y="-198"/>
      <point x="285" y="-198" type="curve" smooth="yes"/>
    </contour>
    <contour>
      <point x="157" y="399" type="line"/>
      <point x="157" y="401"/>
      <point x="158" y="402"/>
      <point x="160" y="403" type="curve"/>
      <point x="277" y="403" type="line"/>
      <point x="279" y="402"/>
      <point x="281" y="402"/>
      <point x="281" y="400" type="curve" smooth="yes"/>
      <point x="281" y="87" type="line"/>
      <point x="281" y="86"/>
      <point x="279" y="85"/>
      <point x="277" y="85" type="curve" smooth="yes"/>
      <point x="160" y="85" type="line" smooth="yes"/>
      <point x="158" y="85"/>
      <point x="157" y="86"/>
      <point x="157" y="88" type="curve" smooth="yes"/>
    </contour>
  </outline>
</glyph>
<glyph name="u" format="1">
  <advance width="440"/>
  <unicode hex="0075"/>
  <outline>
    <contour>
      <point x="294" y="0" type="line"/>
      <point x="346" y="0"/>
      <point x="388" y="42"/>
      <point x="388" y="95" type="curve" smooth="yes"/>
      <point x="388" y="491" type="line" smooth="yes"/>
      <point x="388" y="493"/>
      <point x="387" y="494"/>
      <point x="385" y="494" type="curve" smooth="yes"/>
      <point x="286" y="494" type="line" smooth="yes"/>
      <point x="284" y="494"/>
      <point x="283" y="493"/>
      <point x="283" y="491" type="curve" smooth="yes"/>
      <point x="283" y="88" type="line"/>
      <point x="283" y="87"/>
      <point x="281" y="85"/>
      <point x="280" y="85" type="curve"/>
      <point x="280" y="85" type="line"/>
      <point x="280" y="85" type="line"/>
      <point x="160" y="85" type="line"/>
      <point x="160" y="85" type="line"/>
      <point x="160" y="85" type="line"/>
      <point x="159" y="85"/>
      <point x="157" y="87"/>
      <point x="157" y="88" type="curve"/>
      <point x="157" y="491" type="line" smooth="yes"/>
      <point x="157" y="493"/>
      <point x="156" y="494"/>
      <point x="154" y="494" type="curve" smooth="yes"/>
      <point x="55" y="494" type="line" smooth="yes"/>
      <point x="53" y="494"/>
      <point x="52" y="493"/>
      <point x="52" y="491" type="curve" smooth="yes"/>
      <point x="52" y="95" type="line" smooth="yes"/>
      <point x="52" y="42"/>
      <point x="94" y="0"/>
      <point x="146" y="0" type="curve"/>
      <point x="145" y="0" type="line"/>
    </contour>
    <contour>
      <point x="218" y="500" type="move" name="Top"/>
    </contour>
  </outline>
</glyph>
<glyph name="x" format="1">
  <advance width="444"/>
  <unicode hex="0078"/>
  <outline>
    <contour>
      <point x="311" y="265" type="curve"/>
      <point x="325" y="275"/>
      <point x="347" y="313"/>
      <point x="380" y="359" type="curve" smooth="yes"/>
      <point x="381" y="360"/>
      <point x="382" y="362"/>
      <point x="382" y="363" type="curve"/>
      <point x="382" y="490" type="line" smooth="yes"/>
      <point x="382" y="492"/>
      <point x="381" y="494"/>
      <point x="379" y="494" type="curve" smooth="yes"/>
      <point x="279" y="494" type="line"/>
      <point x="278" y="494"/>
      <point x="278" y="493"/>
      <point x="277" y="493" type="curve"/>
      <point x="277" y="371" type="line" smooth="yes"/>
      <point x="277" y="361"/>
      <point x="237" y="293"/>
      <point x="222" y="293" type="curve" smooth="yes"/>
      <point x="207" y="293"/>
      <point x="166" y="361"/>
      <point x="166" y="371" type="curve" smooth="yes"/>
      <point x="166" y="493" type="line"/>
      <point x="165" y="493"/>
      <point x="165" y="494"/>
      <point x="164" y="494" type="curve"/>
      <point x="65" y="494" type="line" smooth="yes"/>
      <point x="63" y="494"/>
      <point x="62" y="492"/>
      <point x="61" y="490" type="curve"/>
      <point x="61" y="363" type="line"/>
      <point x="64" y="359" type="line" smooth="yes"/>
      <point x="97" y="313"/>
      <point x="119" y="275"/>
      <point x="133" y="265" type="curve"/>
      <point x="118" y="257"/>
      <point x="80" y="240"/>
      <point x="47" y="196" type="curve"/>
      <point x="47" y="2" type="line" smooth="yes"/>
      <point x="47" y="0"/>
      <point x="48" y="-1"/>
      <point x="50" y="-1" type="curve" smooth="yes"/>
      <point x="148" y="-1" type="line" smooth="yes"/>
      <point x="150" y="-1"/>
      <point x="152" y="0"/>
      <point x="152" y="2" type="curve" smooth="yes"/>
      <point x="152" y="167" type="line" smooth="yes"/>
      <point x="152" y="181"/>
      <point x="207" y="225"/>
      <point x="222" y="225" type="curve" smooth="yes"/>
      <point x="237" y="225"/>
      <point x="292" y="181"/>
      <point x="292" y="167" type="curve" smooth="yes"/>
      <point x="292" y="152"/>
      <point x="291" y="2"/>
      <point x="291" y="2" type="curve"/>
      <point x="291" y="0"/>
      <point x="293" y="-1"/>
      <point x="295" y="-1" type="curve" smooth="yes"/>
      <point x="394" y="-1" type="line"/>
      <point x="395" y="-1"/>
      <point x="397" y="0"/>
      <point x="397" y="2" type="curve" smooth="yes"/>
      <point x="397" y="196" type="line"/>
      <point x="364" y="240"/>
      <point x="326" y="257"/>
    </contour>
  </outline>
</glyph>
<glyph name="y" format="1">
  <advance width="423"/>
  <unicode hex="0079"/>
  <outline>
    <contour>
      <point x="367" y="84" type="line"/>
      <point x="369" y="490" type="line"/>
      <point x="368" y="490" type="line"/>
      <point x="368" y="492"/>
      <point x="366" y="494"/>
      <point x="364" y="494" type="curve" smooth="yes"/>
      <point x="266" y="494" type="line"/>
      <point x="265" y="494"/>
      <point x="263" y="492"/>
      <point x="263" y="490" type="curve"/>
      <point x="262" y="490" type="line"/>
      <point x="262" y="84" type="line"/>
      <point x="159" y="84" type="line"/>
      <point x="160" y="490" type="line" smooth="yes"/>
      <point x="160" y="492"/>
      <point x="158" y="494"/>
      <point x="156" y="494" type="curve" smooth="yes"/>
      <point x="58" y="494" type="line"/>
      <point x="57" y="494"/>
      <point x="55" y="492"/>
      <point x="55" y="490" type="curve"/>
      <point x="54" y="490" type="line"/>
      <point x="54" y="92" type="line"/>
      <point x="55" y="92" type="line"/>
      <point x="56" y="43"/>
      <point x="97" y="5"/>
      <point x="146" y="1" type="curve"/>
      <point x="262" y="1" type="line"/>
      <point x="262" y="-111" type="line"/>
      <point x="262" y="-112"/>
      <point x="261" y="-114"/>
      <point x="259" y="-114" type="curve" smooth="yes"/>
      <point x="158" y="-114" type="line" smooth="yes"/>
      <point x="156" y="-114"/>
      <point x="155" y="-112"/>
      <point x="155" y="-111" type="curve"/>
      <point x="155" y="-61" type="line" smooth="yes"/>
      <point x="155" y="-59"/>
      <point x="153" y="-57"/>
      <point x="151" y="-57" type="curve" smooth="yes"/>
      <point x="58" y="-57" type="line"/>
      <point x="57" y="-57"/>
      <point x="55" y="-59"/>
      <point x="55" y="-61" type="curve" smooth="yes"/>
      <point x="55" y="-105" type="line" smooth="yes"/>
      <point x="55" y="-157"/>
      <point x="94" y="-199"/>
      <point x="145" y="-199" type="curve" smooth="yes"/>
      <point x="273" y="-199" type="line" smooth="yes"/>
      <point x="325" y="-199"/>
      <point x="367" y="-157"/>
      <point x="367" y="-105" type="curve" smooth="yes"/>
    </contour>
    <contour>
      <point x="209" y="477" type="move" name="Top"/>
    </contour>
  </outline>
</glyph>
<glyph name="z" format="1">
  <advance width="459"/>
  <unicode hex="007A"/>
  <outline>
    <contour>
      <point x="406" y="494" type="line"/>
      <point x="409" y="494"/>
      <point x="409" y="491" type="qcurve"/>
      <point x="409" y="420" type="line"/>
      <point x="409" y="416"/>
      <point x="408" y="407"/>
      <point x="406" y="405" type="qcurve"/>
      <point x="167" y="97"/>
      <point x="167" y="97" type="qcurve"/>
      <point x="165" y="94"/>
      <point x="167" y="90"/>
      <point x="169" y="90" type="qcurve"/>
      <point x="307" y="90" type="line"/>
      <point x="308" y="90"/>
      <point x="311" y="93" type="qcurve"/>
      <point x="311" y="94" type="line"/>
      <point x="311" y="174" type="line"/>
      <point x="311" y="177"/>
      <point x="314" y="177" type="qcurve"/>
      <point x="407" y="177" type="line"/>
      <point x="411" y="177"/>
      <point x="411" y="174" type="qcurve"/>
      <point x="411" y="4" type="line"/>
      <point x="411" y="0"/>
      <point x="407" y="0" type="qcurve"/>
      <point x="47" y="0" type="line"/>
      <point x="44" y="0"/>
      <point x="44" y="4" type="qcurve"/>
      <point x="44" y="108" type="line"/>
      <point x="44" y="115"/>
      <point x="47" y="118" type="qcurve"/>
      <point x="278" y="405" type="line"/>
      <point x="278" y="409"/>
      <point x="275" y="409" type="qcurve"/>
      <point x="166" y="409" type="line"/>
      <point x="163" y="409"/>
      <point x="163" y="406" type="qcurve"/>
      <point x="163" y="405" type="line"/>
      <point x="163" y="348" type="line"/>
      <point x="163" y="345"/>
      <point x="159" y="345" type="qcurve"/>
      <point x="63" y="345" type="line"/>
      <point x="60" y="345"/>
      <point x="60" y="348" type="qcurve"/>
      <point x="60" y="491" type="line"/>
      <point x="60" y="494"/>
      <point x="63" y="494" type="qcurve"/>
    </contour>
  </outline>
</glyph>
<glyph name="sterling" format="1">
  <advance width="422"/>
  <unicode hex="00A3"/>
  <outline>
    <contour>
      <point x="193" y="616" type="line"/>
      <point x="193" y="618"/>
      <point x="194" y="619"/>
      <point x="196" y="619" type="curve"/>
      <point x="276" y="619" type="line"/>
      <point x="278" y="619"/>
      <point x="279" y="617"/>
      <point x="279" y="616" type="curve"/>
      <point x="279" y="476" type="line"/>
      <point x="375" y="476" type="line"/>
      <point x="375" y="615" type="line"/>
      <point x="375" y="666"/>
      <point x="336" y="708"/>
      <point x="284" y="708" type="curve"/>
      <point x="175" y="708" type="line"/>
      <point x="122" y="708"/>
      <point x="86" y="667"/>
      <point x="86" y="616" type="curve"/>
      <point x="86" y="332" type="line"/>
      <point x="33" y="332" type="line"/>
      <point x="31" y="332"/>
      <point x="29" y="330"/>
      <point x="29" y="328" type="curve"/>
      <point x="29" y="255" type="line"/>
      <point x="29" y="253"/>
      <point x="31" y="252"/>
      <point x="33" y="252" type="curve"/>
      <point x="86" y="252" type="line"/>
      <point x="86" y="91" type="line"/>
      <point x="30" y="91" type="line"/>
      <point x="28" y="91"/>
      <point x="26" y="89"/>
      <point x="26" y="87" type="curve"/>
      <point x="26" y="3" type="line"/>
      <point x="27" y="1"/>
      <point x="28" y="-1"/>
      <point x="30" y="-1" type="curve"/>
      <point x="376" y="-1" type="line"/>
      <point x="378" y="-1"/>
      <point x="379" y="1"/>
      <point x="380" y="3" type="curve"/>
      <point x="380" y="87" type="line"/>
      <point x="380" y="89"/>
      <point x="378" y="91"/>
      <point x="376" y="91" type="curve"/>
      <point x="196" y="91" type="line"/>
      <point x="194" y="91"/>
      <point x="193" y="92"/>
      <point x="193" y="94" type="curve"/>
      <point x="193" y="252" type="line"/>
      <point x="277" y="252" type="line"/>
      <point x="279" y="252"/>
      <point x="281" y="253"/>
      <point x="281" y="255" type="curve"/>
      <point x="281" y="328" type="line"/>
      <point x="281" y="330"/>
      <point x="279" y="332"/>
      <point x="277" y="332" type="curve"/>
      <point x="193" y="332" type="line"/>
    </contour>
  </outline>
</glyph>
<glyph name="dieresis" format="1">
  <advance width="420"/>
  <unicode hex="00A8"/>
  <outline>
    <contour>
      <point x="82" y="732" type="line" smooth="yes"/>
      <point x="80" y="732"/>
      <point x="79" y="731"/>
      <point x="79" y="729" type="curve" smooth="yes"/>
      <point x="79" y="652" type="line" smooth="yes"/>
      <point x="79" y="651"/>
      <point x="80" y="649"/>
      <point x="82" y="649" type="curve" smooth="yes"/>
      <point x="174" y="649" type="line" smooth="yes"/>
      <point x="175" y="649"/>
      <point x="176" y="651"/>
      <point x="177" y="652" type="curve"/>
      <point x="177" y="729" type="line"/>
      <point x="176" y="731"/>
      <point x="175" y="732"/>
      <point x="174" y="732" type="curve" smooth="yes"/>
    </contour>
    <contour>
      <point x="246" y="732" type="line" smooth="yes"/>
      <point x="245" y="732"/>
      <point x="243" y="731"/>
      <point x="243" y="729" type="curve" smooth="yes"/>
      <point x="243" y="652" type="line" smooth="yes"/>
      <point x="243" y="651"/>
      <point x="245" y="649"/>
      <point x="246" y="649" type="curve" smooth="yes"/>
      <point x="338" y="649" type="line" smooth="yes"/>
      <point x="340" y="649"/>
      <point x="341" y="651"/>
      <point x="341" y="652" type="curve"/>
      <point x="341" y="729" type="line"/>
      <point x="341" y="731"/>
      <point x="340" y="732"/>
      <point x="338" y="732" type="curve" smooth="yes"/>
    </contour>
    <contour>
      <point x="214" y="581" type="move" name="_Top"/>
    </contour>
  </outline>
</glyph>
<glyph name="copyright" format="1">
  <advance width="443"/>
  <unicode hex="00A9"/>
  <outline>
    <contour>
      <point x="38" y="391" type="line"/>
      <point x="37" y="362"/>
      <point x="53" y="344"/>
      <point x="83" y="342" type="curve"/>
      <point x="357" y="342" type="line"/>
      <point x="385" y="342"/>
      <point x="403" y="357"/>
      <point x="406" y="385" type="curve"/>
      <point x="406" y="683" type="line"/>
      <point x="404" y="712"/>
      <point x="386" y="727"/>
      <point x="357" y="727" type="curve"/>
      <point x="83" y="727" type="line"/>
      <point x="53" y="726"/>
      <point x="37" y="707"/>
      <point x="37" y="679" type="curve"/>
    </contour>
    <contour>
      <point x="361" y="382" type="curve"/>
      <point x="81" y="382" type="line"/>
      <point x="79" y="382"/>
      <point x="78" y="382"/>
      <point x="78" y="387" type="curve"/>
      <point x="77" y="387" type="line"/>
      <point x="78" y="682" type="line"/>
      <point x="78" y="683" type="line"/>
      <point x="78" y="687"/>
      <point x="79" y="689"/>
      <point x="81" y="689" type="curve"/>
      <point x="361" y="689" type="line"/>
      <point x="364" y="689"/>
      <point x="365" y="687"/>
      <point x="365" y="683" type="curve"/>
      <point x="365" y="387" type="line"/>
      <point x="365" y="382"/>
      <point x="364" y="382"/>
    </contour>
    <contour>
      <point x="251" y="635" type="curve"/>
      <point x="189" y="635" type="line"/>
      <point x="165" y="634"/>
      <point x="150" y="618"/>
      <point x="150" y="599" type="curve"/>
      <point x="150" y="463" type="line"/>
      <point x="150" y="444"/>
      <point x="166" y="428"/>
      <point x="190" y="428" type="curve"/>
      <point x="251" y="428" type="line"/>
      <point x="271" y="428"/>
      <point x="287" y="444"/>
      <point x="287" y="463" type="curve"/>
      <point x="287" y="498" type="line"/>
      <point x="287" y="499"/>
      <point x="286" y="500"/>
      <point x="286" y="500" type="curve"/>
      <point x="249" y="500" type="line"/>
      <point x="248" y="500"/>
      <point x="247" y="499"/>
      <point x="247" y="498" type="curve"/>
      <point x="247" y="463" type="line"/>
      <point x="193" y="463" type="line"/>
      <point x="193" y="599" type="line"/>
      <point x="193" y="600"/>
      <point x="194" y="601"/>
      <point x="195" y="601" type="curve"/>
      <point x="246" y="601" type="line"/>
      <point x="247" y="601"/>
      <point x="247" y="600"/>
      <point x="247" y="599" type="curve"/>
      <point x="247" y="570" type="line"/>
      <point x="247" y="569"/>
      <point x="248" y="568"/>
      <point x="248" y="568" type="curve"/>
      <point x="286" y="568" type="line"/>
      <point x="286" y="568"/>
      <point x="287" y="569"/>
      <point x="287" y="570" type="curve"/>
      <point x="287" y="599" type="line"/>
      <point x="287" y="619"/>
      <point x="271" y="635"/>
    </contour>
  </outline>
</glyph>
<glyph name="ordfeminine" format="1">
  <advance width="384"/>
  <unicode hex="00AA"/>
  <outline>
    <contour>
      <point x="345" y="343" type="line"/>
      <point x="345" y="647" type="line" smooth="yes"/>
      <point x="345" y="692"/>
      <point x="309" y="727"/>
      <point x="265" y="727" type="curve" smooth="yes"/>
      <point x="115" y="727" type="line" smooth="yes"/>
      <point x="72" y="727"/>
      <point x="39" y="692"/>
      <point x="39" y="647" type="curve" smooth="yes"/>
      <point x="39" y="614" type="line" smooth="yes"/>
      <point x="39" y="612"/>
      <point x="41" y="610"/>
      <point x="42" y="610" type="curve"/>
      <point x="120" y="610" type="line"/>
      <point x="121" y="610"/>
      <point x="123" y="612"/>
      <point x="123" y="614" type="curve" smooth="yes"/>
      <point x="123" y="648" type="line"/>
      <point x="123" y="649"/>
      <point x="124" y="651"/>
      <point x="125" y="651" type="curve"/>
      <point x="255" y="651" type="line"/>
      <point x="256" y="651"/>
      <point x="257" y="649"/>
      <point x="257" y="648" type="curve"/>
      <point x="257" y="563" type="line"/>
      <point x="42" y="563" type="line"/>
      <point x="41" y="563"/>
      <point x="39" y="563"/>
      <point x="39" y="561" type="curve" smooth="yes"/>
      <point x="39" y="423" type="line" smooth="yes"/>
      <point x="39" y="379"/>
      <point x="72" y="344"/>
      <point x="115" y="343" type="curve"/>
    </contour>
    <contour>
      <point x="257" y="421" type="line" smooth="yes"/>
      <point x="257" y="419"/>
      <point x="256" y="418"/>
      <point x="255" y="418" type="curve"/>
      <point x="125" y="418" type="line"/>
      <point x="124" y="418"/>
      <point x="123" y="419"/>
      <point x="123" y="421" type="curve" smooth="yes"/>
      <point x="123" y="502" type="line"/>
      <point x="257" y="502" type="line"/>
    </contour>
  </outline>
</glyph>
<glyph name="guillemotleft" format="1">
  <advance width="621"/>
  <unicode hex="00AB"/>
  <outline>
    <contour>
      <point x="287" y="490" type="line"/>
      <point x="282" y="491"/>
      <point x="278" y="486"/>
      <point x="278" y="486" type="curve"/>
      <point x="54" y="260" type="line" smooth="yes"/>
      <point x="52" y="258"/>
      <point x="50" y="253"/>
      <point x="49" y="250" type="curve" smooth="yes"/>
      <point x="49" y="248" type="line"/>
      <point x="49" y="247" type="line"/>
      <point x="50" y="243"/>
      <point x="52" y="239"/>
      <point x="54" y="236" type="curve" smooth="yes"/>
      <point x="278" y="10" type="line"/>
      <point x="278" y="10"/>
      <point x="282" y="5"/>
      <point x="287" y="6" type="curve"/>
      <point x="310" y="5" type="line"/>
      <point x="311" y="5"/>
      <point x="313" y="7"/>
      <point x="313" y="9" type="curve" smooth="yes"/>
      <point x="313" y="104" type="line" smooth="yes"/>
      <point x="313" y="106"/>
      <point x="312" y="107"/>
      <point x="310" y="107" type="curve"/>
      <point x="178" y="237" type="line"/>
      <point x="176" y="240"/>
      <point x="174" y="245"/>
      <point x="174" y="248" type="curve" smooth="yes"/>
      <point x="174" y="250" type="line"/>
      <point x="174" y="251"/>
      <point x="176" y="257"/>
      <point x="178" y="259" type="curve" smooth="yes"/>
      <point x="310" y="389" type="line" smooth="yes"/>
      <point x="312" y="390"/>
      <point x="313" y="391"/>
      <point x="313" y="392" type="curve"/>
      <point x="313" y="487" type="line" smooth="yes"/>
      <point x="313" y="489"/>
      <point x="311" y="491"/>
      <point x="310" y="491" type="curve"/>
    </contour>
    <contour>
      <point x="527" y="490" type="line"/>
      <point x="522" y="491"/>
      <point x="518" y="486"/>
      <point x="518" y="486" type="curve"/>
      <point x="294" y="260" type="line" smooth="yes"/>
      <point x="292" y="258"/>
      <point x="290" y="253"/>
      <point x="289" y="250" type="curve" smooth="yes"/>
      <point x="289" y="248" type="line"/>
      <point x="289" y="247" type="line"/>
      <point x="290" y="243"/>
      <point x="292" y="239"/>
      <point x="294" y="236" type="curve" smooth="yes"/>
      <point x="518" y="10" type="line"/>
      <point x="518" y="10"/>
      <point x="522" y="5"/>
      <point x="527" y="6" type="curve"/>
      <point x="550" y="5" type="line"/>
      <point x="551" y="5"/>
      <point x="553" y="7"/>
      <point x="553" y="9" type="curve" smooth="yes"/>
      <point x="553" y="104" type="line" smooth="yes"/>
      <point x="553" y="106"/>
      <point x="552" y="107"/>
      <point x="550" y="107" type="curve"/>
      <point x="418" y="237" type="line"/>
      <point x="416" y="240"/>
      <point x="414" y="245"/>
      <point x="414" y="248" type="curve" smooth="yes"/>
      <point x="414" y="250" type="line"/>
      <point x="414" y="251"/>
      <point x="416" y="257"/>
      <point x="418" y="259" type="curve" smooth="yes"/>
      <point x="550" y="389" type="line" smooth="yes"/>
      <point x="552" y="390"/>
      <point x="553" y="391"/>
      <point x="553" y="392" type="curve"/>
      <point x="553" y="487" type="line" smooth="yes"/>
      <point x="553" y="489"/>
      <point x="551" y="491"/>
      <point x="550" y="491" type="curve"/>
    </contour>
  </outline>
</glyph>
<glyph name="logicalnot" format="1">
  <advance width="588"/>
  <unicode hex="00AC"/>
  <outline>
    <contour>
      <point x="442" y="250" type="line"/>
      <point x="442" y="248"/>
      <point x="444" y="246"/>
      <point x="446" y="246" type="curve" smooth="yes"/>
      <point x="515" y="246" type="line"/>
      <point x="517" y="247"/>
      <point x="519" y="248"/>
      <point x="519" y="250" type="curve" smooth="yes"/>
      <point x="519" y="445" type="line"/>
      <point x="519" y="454" type="line" smooth="yes"/>
      <point x="519" y="456"/>
      <point x="517" y="458"/>
      <point x="515" y="458" type="curve" smooth="yes"/>
      <point x="72" y="458" type="line" smooth="yes"/>
      <point x="70" y="458"/>
      <point x="69" y="456"/>
      <point x="69" y="454" type="curve" smooth="yes"/>
      <point x="69" y="379" type="line" smooth="yes"/>
      <point x="69" y="377"/>
      <point x="70" y="375"/>
      <point x="72" y="375" type="curve" smooth="yes"/>
      <point x="439" y="375" type="line" smooth="yes"/>
      <point x="441" y="375"/>
      <point x="442" y="374"/>
      <point x="442" y="372" type="curve" smooth="yes"/>
    </contour>
  </outline>
</glyph>
<glyph name="macron" format="1">
  <advance width="389"/>
  <unicode hex="00AF"/>
  <outline>
    <contour>
      <point x="66" y="841" type="line"/>
      <point x="67" y="841"/>
      <point x="62" y="839"/>
      <point x="62" y="837" type="curve"/>
      <point x="62" y="777" type="line"/>
      <point x="62" y="775"/>
      <point x="64" y="773"/>
      <point x="65" y="773" type="curve"/>
      <point x="324" y="773" type="line"/>
      <point x="325" y="773"/>
      <point x="327" y="775"/>
      <point x="327" y="777" type="curve"/>
      <point x="327" y="837" type="line"/>
      <point x="327" y="839"/>
      <point x="325" y="841"/>
      <point x="323" y="841" type="curve"/>
    </contour>
  </outline>
</glyph>
<glyph name="plusminus" format="1">
  <advance width="434"/>
  <unicode hex="00B1"/>
  <outline>
    <contour>
      <point x="183" y="105" type="line"/>
      <point x="183" y="106"/>
      <point x="185" y="101"/>
      <point x="187" y="101" type="curve"/>
      <point x="247" y="101" type="line"/>
      <point x="249" y="101"/>
      <point x="251" y="103"/>
      <point x="251" y="104" type="curve"/>
      <point x="251" y="249" type="line"/>
      <point x="396" y="249" type="line"/>
      <point x="397" y="249"/>
      <point x="399" y="251"/>
      <point x="399" y="253" type="curve"/>
      <point x="399" y="313" type="line"/>
      <point x="399" y="315"/>
      <point x="397" y="317"/>
      <point x="395" y="317" type="curve"/>
      <point x="251" y="317" type="line"/>
      <point x="251" y="462" type="line"/>
      <point x="251" y="463"/>
      <point x="249" y="465"/>
      <point x="247" y="465" type="curve"/>
      <point x="187" y="465" type="line"/>
      <point x="185" y="465"/>
      <point x="183" y="463"/>
      <point x="183" y="461" type="curve"/>
      <point x="183" y="317" type="line"/>
      <point x="39" y="317" type="line"/>
      <point x="40" y="317"/>
      <point x="35" y="315"/>
      <point x="35" y="313" type="curve"/>
      <point x="35" y="253" type="line"/>
      <point x="35" y="251"/>
      <point x="37" y="249"/>
      <point x="38" y="249" type="curve"/>
      <point x="183" y="249" type="line"/>
    </contour>
    <contour>
      <point x="74" y="61" type="line"/>
      <point x="75" y="61"/>
      <point x="70" y="59"/>
      <point x="70" y="57" type="curve"/>
      <point x="70" y="7" type="line"/>
      <point x="70" y="5"/>
      <point x="72" y="3"/>
      <point x="73" y="3" type="curve"/>
      <point x="361" y="3" type="line"/>
      <point x="362" y="3"/>
      <point x="364" y="5"/>
      <point x="364" y="7" type="curve"/>
      <point x="364" y="57" type="line"/>
      <point x="364" y="59"/>
      <point x="362" y="61"/>
      <point x="360" y="61" type="curve"/>
    </contour>
  </outline>
</glyph>
<glyph name="twosuperior" format="1">
  <advance width="272"/>
  <unicode hex="00B2"/>
  <outline>
    <contour>
      <point x="107" y="460" type="curve"/>
      <point x="107" y="475" type="line"/>
      <point x="107" y="475"/>
      <point x="226" y="594"/>
      <point x="227" y="595" type="curve"/>
      <point x="227" y="596"/>
      <point x="228" y="598"/>
      <point x="228" y="600" type="curve" smooth="yes"/>
      <point x="228" y="675" type="line" smooth="yes"/>
      <point x="228" y="706"/>
      <point x="206" y="731"/>
      <point x="173" y="731" type="curve" smooth="yes"/>
      <point x="103" y="731" type="line" smooth="yes"/>
      <point x="72" y="731"/>
      <point x="48" y="705"/>
      <point x="48" y="674" type="curve" smooth="yes"/>
      <point x="48" y="620" type="line"/>
      <point x="108" y="620" type="line"/>
      <point x="108" y="675" type="line"/>
      <point x="108" y="675"/>
      <point x="109" y="677"/>
      <point x="110" y="677" type="curve"/>
      <point x="163" y="677" type="line" smooth="yes"/>
      <point x="165" y="677"/>
      <point x="165" y="676"/>
      <point x="165" y="675" type="curve"/>
      <point x="165" y="631" type="line" smooth="yes"/>
      <point x="165" y="629"/>
      <point x="165" y="627"/>
      <point x="164" y="626" type="curve"/>
      <point x="164" y="625"/>
      <point x="42" y="501"/>
      <point x="42" y="501" type="curve"/>
      <point x="40" y="498"/>
      <point x="40" y="497"/>
      <point x="40" y="494" type="curve" smooth="yes"/>
      <point x="40" y="400" type="line"/>
      <point x="40" y="399"/>
      <point x="41" y="398"/>
      <point x="42" y="398" type="curve"/>
      <point x="178" y="398" type="line" smooth="yes"/>
      <point x="209" y="398"/>
      <point x="233" y="424"/>
      <point x="233" y="455" type="curve" smooth="yes"/>
      <point x="233" y="510" type="line"/>
      <point x="172" y="510" type="line"/>
      <point x="172" y="457" type="line"/>
      <point x="108" y="457" type="line"/>
      <point x="107" y="457"/>
      <point x="107" y="458"/>
    </contour>
  </outline>
</glyph>
<glyph name="threesuperior" format="1">
  <advance width="275"/>
  <unicode hex="00B3"/>
  <outline>
    <contour>
      <point x="110" y="529" type="line"/>
      <point x="110" y="529"/>
      <point x="110" y="528"/>
      <point x="111" y="528" type="curve"/>
      <point x="157" y="528" type="line"/>
      <point x="157" y="528"/>
      <point x="157" y="527"/>
      <point x="157" y="526" type="curve"/>
      <point x="157" y="447" type="line" smooth="yes"/>
      <point x="157" y="445"/>
      <point x="157" y="445"/>
      <point x="156" y="444" type="curve"/>
      <point x="108" y="444" type="line"/>
      <point x="108" y="445"/>
      <point x="107" y="445"/>
      <point x="107" y="447" type="curve" smooth="yes"/>
      <point x="107" y="491" type="line"/>
      <point x="107" y="492"/>
      <point x="106" y="493"/>
      <point x="105" y="493" type="curve"/>
      <point x="43" y="493" type="line"/>
      <point x="42" y="493"/>
      <point x="41" y="492"/>
      <point x="41" y="491" type="curve"/>
      <point x="41" y="447" type="line" smooth="yes"/>
      <point x="41" y="416"/>
      <point x="69" y="393"/>
      <point x="104" y="393" type="curve" smooth="yes"/>
      <point x="167" y="393" type="line" smooth="yes"/>
      <point x="202" y="393"/>
      <point x="229" y="416"/>
      <point x="229" y="447" type="curve" smooth="yes"/>
      <point x="229" y="559" type="line" smooth="yes"/>
      <point x="229" y="566"/>
      <point x="229" y="569"/>
      <point x="221" y="569" type="curve" smooth="yes"/>
      <point x="169" y="569" type="line"/>
      <point x="169" y="569"/>
      <point x="169" y="569"/>
      <point x="169" y="569" type="curve"/>
      <point x="219" y="601" type="line" smooth="yes"/>
      <point x="226" y="605"/>
      <point x="229" y="613"/>
      <point x="229" y="620" type="curve" smooth="yes"/>
      <point x="229" y="675" type="line" smooth="yes"/>
      <point x="229" y="704"/>
      <point x="202" y="728"/>
      <point x="167" y="728" type="curve" smooth="yes"/>
      <point x="104" y="728" type="line" smooth="yes"/>
      <point x="69" y="728"/>
      <point x="41" y="704"/>
      <point x="41" y="675" type="curve" smooth="yes"/>
      <point x="41" y="625" type="line"/>
      <point x="41" y="624"/>
      <point x="42" y="623"/>
      <point x="43" y="623" type="curve"/>
      <point x="105" y="623" type="line"/>
      <point x="105" y="623"/>
      <point x="107" y="624"/>
      <point x="107" y="625" type="curve"/>
      <point x="107" y="675" type="line"/>
      <point x="107" y="676"/>
      <point x="108" y="677"/>
      <point x="108" y="677" type="curve"/>
      <point x="156" y="677" type="line"/>
      <point x="157" y="677"/>
      <point x="157" y="677"/>
      <point x="157" y="675" type="curve" smooth="yes"/>
      <point x="157" y="614" type="line"/>
      <point x="110" y="583" type="line"/>
    </contour>
  </outline>
</glyph>
<glyph name="acute" format="1">
  <advance width="256"/>
  <unicode hex="00B4"/>
  <outline>
    <contour>
      <point x="191" y="728" type="line"/>
      <point x="191" y="730"/>
      <point x="190" y="731"/>
      <point x="187" y="731" type="curve" smooth="yes"/>
      <point x="121" y="731" type="line" smooth="yes"/>
      <point x="118" y="731"/>
      <point x="117" y="730"/>
      <point x="116" y="728" type="curve" smooth="yes"/>
      <point x="56" y="564" type="line"/>
      <point x="56" y="562"/>
      <point x="57" y="561"/>
      <point x="60" y="561" type="curve" smooth="yes"/>
      <point x="127" y="561" type="line" smooth="yes"/>
      <point x="130" y="561"/>
      <point x="130" y="562"/>
      <point x="131" y="564" type="curve" smooth="yes"/>
    </contour>
    <contour>
      <point x="91" y="521" type="move" name="_Top"/>
    </contour>
  </outline>
</glyph>
<glyph name="onesuperior" format="1">
  <advance width="161"/>
  <unicode hex="00B9"/>
  <outline>
    <contour>
      <point x="127" y="726" type="line"/>
      <point x="127" y="727"/>
      <point x="126" y="728"/>
      <point x="125" y="728" type="curve"/>
      <point x="31" y="728" type="line" smooth="yes"/>
      <point x="29" y="728"/>
      <point x="29" y="727"/>
      <point x="29" y="726" type="curve"/>
      <point x="29" y="674" type="line"/>
      <point x="29" y="673"/>
      <point x="29" y="672"/>
      <point x="31" y="672" type="curve" smooth="yes"/>
      <point x="57" y="672" type="line"/>
      <point x="57" y="398" type="line"/>
      <point x="57" y="397"/>
      <point x="58" y="395"/>
      <point x="59" y="395" type="curve"/>
      <point x="125" y="395" type="line"/>
      <point x="126" y="395"/>
      <point x="127" y="397"/>
      <point x="127" y="398" type="curve"/>
    </contour>
  </outline>
</glyph>
<glyph name="guillemotright" format="1">
  <advance width="621"/>
  <unicode hex="00BB"/>
  <outline>
    <contour>
      <point x="292" y="491" type="line"/>
      <point x="291" y="491"/>
      <point x="289" y="489"/>
      <point x="289" y="487" type="curve" smooth="yes"/>
      <point x="289" y="392" type="line"/>
      <point x="289" y="391"/>
      <point x="290" y="390"/>
      <point x="292" y="389" type="curve" smooth="yes"/>
      <point x="424" y="259" type="line" smooth="yes"/>
      <point x="426" y="257"/>
      <point x="428" y="251"/>
      <point x="428" y="250" type="curve"/>
      <point x="428" y="248" type="line" smooth="yes"/>
      <point x="428" y="245"/>
      <point x="426" y="240"/>
      <point x="424" y="237" type="curve"/>
      <point x="292" y="107" type="line"/>
      <point x="290" y="107"/>
      <point x="289" y="106"/>
      <point x="289" y="104" type="curve" smooth="yes"/>
      <point x="289" y="9" type="line" smooth="yes"/>
      <point x="289" y="7"/>
      <point x="291" y="5"/>
      <point x="292" y="5" type="curve"/>
      <point x="315" y="6" type="line"/>
      <point x="320" y="5"/>
      <point x="324" y="10"/>
      <point x="324" y="10" type="curve"/>
      <point x="548" y="236" type="line" smooth="yes"/>
      <point x="550" y="239"/>
      <point x="552" y="243"/>
      <point x="553" y="247" type="curve"/>
      <point x="553" y="248" type="line"/>
      <point x="553" y="250" type="line" smooth="yes"/>
      <point x="552" y="253"/>
      <point x="550" y="258"/>
      <point x="548" y="260" type="curve" smooth="yes"/>
      <point x="324" y="486" type="line"/>
      <point x="324" y="486"/>
      <point x="320" y="491"/>
      <point x="315" y="490" type="curve"/>
    </contour>
    <contour>
      <point x="52" y="491" type="line"/>
      <point x="51" y="491"/>
      <point x="49" y="489"/>
      <point x="49" y="487" type="curve" smooth="yes"/>
      <point x="49" y="392" type="line"/>
      <point x="49" y="391"/>
      <point x="50" y="390"/>
      <point x="52" y="389" type="curve" smooth="yes"/>
      <point x="184" y="259" type="line" smooth="yes"/>
      <point x="186" y="257"/>
      <point x="188" y="251"/>
      <point x="188" y="250" type="curve"/>
      <point x="188" y="248" type="line" smooth="yes"/>
      <point x="188" y="245"/>
      <point x="186" y="240"/>
      <point x="184" y="237" type="curve"/>
      <point x="52" y="107" type="line"/>
      <point x="50" y="107"/>
      <point x="49" y="106"/>
      <point x="49" y="104" type="curve" smooth="yes"/>
      <point x="49" y="9" type="line" smooth="yes"/>
      <point x="49" y="7"/>
      <point x="51" y="5"/>
      <point x="52" y="5" type="curve"/>
      <point x="75" y="6" type="line"/>
      <point x="80" y="5"/>
      <point x="84" y="10"/>
      <point x="84" y="10" type="curve"/>
      <point x="308" y="236" type="line" smooth="yes"/>
      <point x="310" y="239"/>
      <point x="312" y="243"/>
      <point x="313" y="247" type="curve"/>
      <point x="313" y="248" type="line"/>
      <point x="313" y="250" type="line" smooth="yes"/>
      <point x="312" y="253"/>
      <point x="310" y="258"/>
      <point x="308" y="260" type="curve" smooth="yes"/>
      <point x="84" y="486" type="line"/>
      <point x="84" y="486"/>
      <point x="80" y="491"/>
      <point x="75" y="490" type="curve"/>
    </contour>
  </outline>
</glyph>
<glyph name="onequarter" format="1">
  <advance width="555"/>
  <unicode hex="00BC"/>
  <outline>
    <contour>
      <point x="385" y="333" type="line"/>
      <point x="321" y="142" type="line" smooth="yes"/>
      <point x="320" y="140"/>
      <point x="320" y="138"/>
      <point x="320" y="137" type="curve"/>
      <point x="320" y="99" type="line"/>
      <point x="320" y="98"/>
      <point x="321" y="98"/>
      <point x="321" y="98" type="curve"/>
      <point x="422" y="98" type="line"/>
      <point x="422" y="1" type="line"/>
      <point x="422" y="0"/>
      <point x="422" y="-1"/>
      <point x="423" y="-1" type="curve"/>
      <point x="489" y="-1" type="line"/>
      <point x="489" y="-1"/>
      <point x="490" y="0"/>
      <point x="490" y="1" type="curve"/>
      <point x="490" y="330" type="line"/>
      <point x="490" y="331"/>
      <point x="490" y="332"/>
      <point x="489" y="332" type="curve"/>
    </contour>
    <contour>
      <point x="127" y="726" type="line"/>
      <point x="127" y="727"/>
      <point x="126" y="728"/>
      <point x="125" y="728" type="curve"/>
      <point x="31" y="728" type="line" smooth="yes"/>
      <point x="29" y="728"/>
      <point x="29" y="727"/>
      <point x="29" y="726" type="curve"/>
      <point x="29" y="674" type="line"/>
      <point x="29" y="673"/>
      <point x="29" y="672"/>
      <point x="31" y="672" type="curve" smooth="yes"/>
      <point x="57" y="672" type="line"/>
      <point x="57" y="398" type="line"/>
      <point x="57" y="397"/>
      <point x="58" y="395"/>
      <point x="59" y="395" type="curve"/>
      <point x="125" y="395" type="line"/>
      <point x="126" y="395"/>
      <point x="127" y="397"/>
      <point x="127" y="398" type="curve"/>
    </contour>
    <contour>
      <point x="382" y="140" type="line"/>
      <point x="381" y="140"/>
      <point x="381" y="141"/>
      <point x="381" y="143" type="curve"/>
      <point x="382" y="144"/>
      <point x="408" y="235"/>
      <point x="421" y="275" type="curve"/>
      <point x="421" y="140" type="line"/>
    </contour>
    <component base="slash" xOffset="22"/>
  </outline>
</glyph>
<glyph name="onehalf" format="1">
  <advance width="614"/>
  <unicode hex="00BD"/>
  <outline>
    <contour>
      <point x="127" y="726" type="line"/>
      <point x="127" y="727"/>
      <point x="126" y="728"/>
      <point x="125" y="728" type="curve"/>
      <point x="31" y="728" type="line" smooth="yes"/>
      <point x="29" y="728"/>
      <point x="29" y="727"/>
      <point x="29" y="726" type="curve"/>
      <point x="29" y="674" type="line"/>
      <point x="29" y="673"/>
      <point x="29" y="672"/>
      <point x="31" y="672" type="curve" smooth="yes"/>
      <point x="57" y="672" type="line"/>
      <point x="57" y="398" type="line"/>
      <point x="57" y="397"/>
      <point x="58" y="395"/>
      <point x="59" y="395" type="curve"/>
      <point x="125" y="395" type="line"/>
      <point x="126" y="395"/>
      <point x="127" y="397"/>
      <point x="127" y="398" type="curve"/>
    </contour>
    <contour>
      <point x="423" y="62" type="curve"/>
      <point x="423" y="77" type="line"/>
      <point x="423" y="77"/>
      <point x="542" y="196"/>
      <point x="543" y="197" type="curve"/>
      <point x="543" y="198"/>
      <point x="544" y="200"/>
      <point x="544" y="202" type="curve" smooth="yes"/>
      <point x="544" y="277" type="line" smooth="yes"/>
      <point x="544" y="308"/>
      <point x="522" y="333"/>
      <point x="489" y="333" type="curve" smooth="yes"/>
      <point x="419" y="333" type="line" smooth="yes"/>
      <point x="388" y="333"/>
      <point x="364" y="307"/>
      <point x="364" y="276" type="curve" smooth="yes"/>
      <point x="364" y="222" type="line"/>
      <point x="424" y="222" type="line"/>
      <point x="424" y="277" type="line"/>
      <point x="424" y="277"/>
      <point x="425" y="279"/>
      <point x="426" y="279" type="curve"/>
      <point x="479" y="279" type="line" smooth="yes"/>
      <point x="481" y="279"/>
      <point x="481" y="278"/>
      <point x="481" y="277" type="curve"/>
      <point x="481" y="233" type="line" smooth="yes"/>
      <point x="481" y="231"/>
      <point x="481" y="229"/>
      <point x="480" y="228" type="curve"/>
      <point x="480" y="227"/>
      <point x="358" y="103"/>
      <point x="358" y="103" type="curve"/>
      <point x="356" y="100"/>
      <point x="356" y="99"/>
      <point x="356" y="96" type="curve" smooth="yes"/>
      <point x="356" y="2" type="line"/>
      <point x="356" y="1"/>
      <point x="357" y="0"/>
      <point x="358" y="0" type="curve"/>
      <point x="494" y="0" type="line" smooth="yes"/>
      <point x="525" y="0"/>
      <point x="549" y="26"/>
      <point x="549" y="57" type="curve" smooth="yes"/>
      <point x="549" y="112" type="line"/>
      <point x="488" y="112" type="line"/>
      <point x="488" y="59" type="line"/>
      <point x="424" y="59" type="line"/>
      <point x="423" y="59"/>
      <point x="423" y="60"/>
    </contour>
    <component base="slash" xOffset="49"/>
  </outline>
</glyph>
<glyph name="AE" format="1">
  <advance width="871"/>
  <unicode hex="00C6"/>
  <outline>
    <contour>
      <point x="581" y="700" type="line" smooth="yes"/>
      <point x="581" y="702"/>
      <point x="580" y="704"/>
      <point x="578" y="704" type="curve" smooth="yes"/>
      <point x="303" y="704" type="line"/>
      <point x="302" y="704"/>
      <point x="301" y="703"/>
      <point x="300" y="703" type="curve"/>
      <point x="157" y="703" type="line"/>
      <point x="104" y="702"/>
      <point x="63" y="660"/>
      <point x="63" y="609" type="curve" smooth="yes"/>
      <point x="63" y="2" type="line"/>
      <point x="63" y="1"/>
      <point x="64" y="-1"/>
      <point x="66" y="-1" type="curve" smooth="yes"/>
      <point x="169" y="-1" type="line" smooth="yes"/>
      <point x="171" y="-1"/>
      <point x="173" y="0"/>
      <point x="173" y="2" type="curve" smooth="yes"/>
      <point x="173" y="285" type="line"/>
      <point x="297" y="285" type="line"/>
      <point x="297" y="2" type="line"/>
      <point x="297" y="1"/>
      <point x="298" y="-1"/>
      <point x="300" y="-1" type="curve" smooth="yes"/>
      <point x="403" y="-1" type="line"/>
      <point x="404" y="-1"/>
      <point x="405" y="0"/>
      <point x="406" y="0" type="curve"/>
      <point x="570" y="0" type="line" smooth="yes"/>
      <point x="572" y="0"/>
      <point x="574" y="1"/>
      <point x="574" y="3" type="curve" smooth="yes"/>
      <point x="574" y="89" type="line" smooth="yes"/>
      <point x="574" y="91"/>
      <point x="572" y="92"/>
      <point x="570" y="92" type="curve" smooth="yes"/>
      <point x="409" y="92" type="line"/>
      <point x="409" y="352" type="line"/>
      <point x="558" y="352" type="line" smooth="yes"/>
      <point x="560" y="352"/>
      <point x="562" y="353"/>
      <point x="562" y="355" type="curve" smooth="yes"/>
      <point x="562" y="428" type="line" smooth="yes"/>
      <point x="562" y="430"/>
      <point x="560" y="432"/>
      <point x="558" y="432" type="curve" smooth="yes"/>
      <point x="409" y="432" type="line"/>
      <point x="409" y="614" type="line"/>
      <point x="578" y="614" type="line" smooth="yes"/>
      <point x="580" y="614"/>
      <point x="581" y="616"/>
      <point x="581" y="618" type="curve" smooth="yes"/>
    </contour>
    <contour>
      <point x="173" y="375" type="line"/>
      <point x="173" y="609" type="line" smooth="yes"/>
      <point x="173" y="611"/>
      <point x="174" y="612"/>
      <point x="176" y="612" type="curve"/>
      <point x="176" y="613" type="line"/>
      <point x="294" y="613" type="line"/>
      <point x="294" y="612" type="line"/>
      <point x="295" y="612"/>
      <point x="297" y="611"/>
      <point x="297" y="609" type="curve" smooth="yes"/>
      <point x="297" y="375" type="line"/>
    </contour>
  </outline>
</glyph>
<glyph name="Eth" format="1">
  <advance width="447"/>
  <unicode hex="00D0"/>
  <outline>
    <contour>
      <point x="387" y="567" type="line" smooth="yes"/>
      <point x="387" y="619"/>
      <point x="348" y="704"/>
      <point x="227" y="704" type="curve" smooth="yes"/>
      <point x="69" y="704" type="line"/>
      <point x="68" y="704"/>
      <point x="66" y="702"/>
      <point x="66" y="700" type="curve" smooth="yes"/>
      <point x="66" y="421" type="line"/>
      <point x="20" y="421" type="line" smooth="yes"/>
      <point x="18" y="421"/>
      <point x="17" y="419"/>
      <point x="17" y="417" type="curve" smooth="yes"/>
      <point x="17" y="345" type="line" smooth="yes"/>
      <point x="17" y="343"/>
      <point x="18" y="342"/>
      <point x="20" y="341" type="curve"/>
      <point x="66" y="341" type="line"/>
      <point x="66" y="3" type="line" smooth="yes"/>
      <point x="66" y="1"/>
      <point x="68" y="0"/>
      <point x="69" y="0" type="curve"/>
      <point x="238" y="0" type="line" smooth="yes"/>
      <point x="359" y="0"/>
      <point x="387" y="83"/>
      <point x="387" y="135" type="curve" smooth="yes"/>
    </contour>
    <contour>
      <point x="228" y="341" type="line"/>
      <point x="230" y="342"/>
      <point x="231" y="343"/>
      <point x="231" y="345" type="curve" smooth="yes"/>
      <point x="231" y="417" type="line" smooth="yes"/>
      <point x="231" y="419"/>
      <point x="230" y="421"/>
      <point x="228" y="421" type="curve" smooth="yes"/>
      <point x="176" y="421" type="line"/>
      <point x="176" y="611" type="line" smooth="yes"/>
      <point x="176" y="613"/>
      <point x="177" y="614"/>
      <point x="179" y="614" type="curve" smooth="yes"/>
      <point x="225" y="614" type="line" smooth="yes"/>
      <point x="250" y="614"/>
      <point x="276" y="600"/>
      <point x="276" y="567" type="curve" smooth="yes"/>
      <point x="277" y="533"/>
      <point x="277" y="582"/>
      <point x="276" y="138" type="curve" smooth="yes"/>
      <point x="276" y="106"/>
      <point x="261" y="92"/>
      <point x="236" y="92" type="curve" smooth="yes"/>
      <point x="179" y="92" type="line" smooth="yes"/>
      <point x="177" y="92"/>
      <point x="176" y="93"/>
      <point x="176" y="95" type="curve" smooth="yes"/>
      <point x="176" y="341" type="line"/>
    </contour>
  </outline>
</glyph>
<glyph name="multiply" format="1">
  <advance width="382"/>
  <unicode hex="00D7"/>
  <outline>
    <contour>
      <point x="41" y="132" type="line"/>
      <point x="42" y="133"/>
      <point x="40" y="128"/>
      <point x="41" y="127" type="curve" smooth="yes"/>
      <point x="84" y="84" type="line" smooth="yes"/>
      <point x="85" y="83"/>
      <point x="88" y="83"/>
      <point x="88" y="83" type="curve"/>
      <point x="342" y="337" type="line"/>
      <point x="342" y="337"/>
      <point x="342" y="340"/>
      <point x="341" y="341" type="curve" smooth="yes"/>
      <point x="298" y="384" type="line" smooth="yes"/>
      <point x="297" y="385"/>
      <point x="294" y="385"/>
      <point x="293" y="384" type="curve" smooth="yes"/>
    </contour>
    <contour>
      <point x="293" y="84" type="line"/>
      <point x="292" y="85"/>
      <point x="297" y="83"/>
      <point x="298" y="84" type="curve" smooth="yes"/>
      <point x="341" y="127" type="line" smooth="yes"/>
      <point x="342" y="128"/>
      <point x="342" y="131"/>
      <point x="342" y="131" type="curve"/>
      <point x="88" y="385" type="line"/>
      <point x="88" y="385"/>
      <point x="85" y="385"/>
      <point x="84" y="384" type="curve" smooth="yes"/>
      <point x="41" y="341" type="line" smooth="yes"/>
      <point x="40" y="340"/>
      <point x="40" y="337"/>
      <point x="41" y="336" type="curve" smooth="yes"/>
    </contour>
  </outline>
</glyph>
<glyph name="Thorn" format="1">
  <advance width="833"/>
  <unicode hex="00DE"/>
  <outline>
    <contour>
      <point x="60" y="703" type="line" smooth="yes"/>
      <point x="58" y="703"/>
      <point x="56" y="702"/>
      <point x="56" y="700" type="curve" smooth="yes"/>
      <point x="56" y="5" type="line" smooth="yes"/>
      <point x="56" y="3"/>
      <point x="58" y="1"/>
      <point x="60" y="1" type="curve" smooth="yes"/>
      <point x="157" y="1" type="line" smooth="yes"/>
      <point x="159" y="1"/>
      <point x="160" y="3"/>
      <point x="161" y="5" type="curve"/>
      <point x="161" y="165" type="line"/>
      <point x="287" y="165" type="line" smooth="yes"/>
      <point x="338" y="165"/>
      <point x="378" y="207"/>
      <point x="378" y="259" type="curve" smooth="yes"/>
      <point x="378" y="400" type="line" smooth="yes"/>
      <point x="378" y="452"/>
      <point x="338" y="494"/>
      <point x="286" y="494" type="curve" smooth="yes"/>
      <point x="161" y="494" type="line"/>
      <point x="161" y="700" type="line"/>
      <point x="160" y="702"/>
      <point x="159" y="703"/>
      <point x="157" y="703" type="curve" smooth="yes"/>
    </contour>
    <contour>
      <point x="273" y="259" type="line" smooth="yes"/>
      <point x="273" y="257"/>
      <point x="272" y="256"/>
      <point x="270" y="255" type="curve"/>
      <point x="161" y="255" type="line"/>
      <point x="161" y="406" type="line"/>
      <point x="270" y="406" type="line" smooth="yes"/>
      <point x="272" y="406"/>
      <point x="273" y="405"/>
      <point x="273" y="403" type="curve" smooth="yes"/>
    </contour>
  </outline>
</glyph>
<glyph name="eth" format="1">
  <advance width="500"/>
  <unicode hex="00F0"/>
  <outline>
    <contour>
      <point x="179" y="612" type="line"/>
      <point x="180" y="612"/>
      <point x="175" y="610"/>
      <point x="175" y="608" type="curve" smooth="yes"/>
      <point x="175" y="561" type="line" smooth="yes"/>
      <point x="175" y="559"/>
      <point x="177" y="557"/>
      <point x="178" y="557" type="curve"/>
      <point x="266" y="557" type="line"/>
      <point x="289" y="496" type="line"/>
      <point x="289" y="495"/>
      <point x="289" y="495"/>
      <point x="290" y="494" type="curve"/>
      <point x="163" y="494" type="line" smooth="yes"/>
      <point x="111" y="494"/>
      <point x="72" y="452"/>
      <point x="72" y="400" type="curve" smooth="yes"/>
      <point x="72" y="94" type="line" smooth="yes"/>
      <point x="72" y="42"/>
      <point x="111" y="0"/>
      <point x="163" y="0" type="curve" smooth="yes"/>
      <point x="303" y="0" type="line" smooth="yes"/>
      <point x="355" y="0"/>
      <point x="395" y="42"/>
      <point x="395" y="94" type="curve" smooth="yes"/>
      <point x="395" y="400" type="line" smooth="yes"/>
      <point x="395" y="415"/>
      <point x="391" y="429"/>
      <point x="385" y="442" type="curve"/>
      <point x="342" y="557" type="line"/>
      <point x="400" y="557" type="line"/>
      <point x="401" y="557"/>
      <point x="403" y="559"/>
      <point x="403" y="561" type="curve" smooth="yes"/>
      <point x="403" y="608" type="line" smooth="yes"/>
      <point x="403" y="610"/>
      <point x="401" y="612"/>
      <point x="399" y="612" type="curve" smooth="yes"/>
      <point x="322" y="612" type="line"/>
      <point x="304" y="660" type="line" smooth="yes"/>
      <point x="303" y="662"/>
      <point x="302" y="663"/>
      <point x="299" y="663" type="curve" smooth="yes"/>
      <point x="233" y="663" type="line" smooth="yes"/>
      <point x="230" y="663"/>
      <point x="229" y="662"/>
      <point x="229" y="660" type="curve"/>
      <point x="246" y="612" type="line"/>
    </contour>
    <contour>
      <point x="290" y="94" type="line" smooth="yes"/>
      <point x="290" y="92"/>
      <point x="289" y="91"/>
      <point x="287" y="90" type="curve"/>
      <point x="181" y="90" type="line"/>
      <point x="179" y="91"/>
      <point x="177" y="92"/>
      <point x="177" y="94" type="curve" smooth="yes"/>
      <point x="177" y="403" type="line" smooth="yes"/>
      <point x="177" y="405"/>
      <point x="179" y="406"/>
      <point x="181" y="406" type="curve" smooth="yes"/>
      <point x="287" y="406" type="line" smooth="yes"/>
      <point x="289" y="406"/>
      <point x="290" y="405"/>
      <point x="290" y="403" type="curve" smooth="yes"/>
    </contour>
  </outline>
</glyph>
<glyph name="divide" format="1">
  <advance width="502"/>
  <unicode hex="00F7"/>
  <outline>
    <contour>
      <point x="43" y="262" type="line"/>
      <point x="44" y="262"/>
      <point x="39" y="260"/>
      <point x="39" y="258" type="curve" smooth="yes"/>
      <point x="39" y="198" type="line" smooth="yes"/>
      <point x="39" y="196"/>
      <point x="41" y="194"/>
      <point x="42" y="194" type="curve"/>
      <point x="460" y="194" type="line"/>
      <point x="461" y="194"/>
      <point x="463" y="196"/>
      <point x="463" y="198" type="curve" smooth="yes"/>
      <point x="463" y="258" type="line" smooth="yes"/>
      <point x="463" y="260"/>
      <point x="461" y="262"/>
      <point x="459" y="262" type="curve" smooth="yes"/>
    </contour>
    <component base="colon" xOffset="147"/>
  </outline>
</glyph>
<glyph name="oe" format="1">
  <advance width="664"/>
  <unicode hex="0153"/>
  <outline>
    <contour>
      <point x="526" y="494" type="curve"/>
      <point x="384" y="494" type="line" smooth="yes"/>
      <point x="363" y="494"/>
      <point x="343" y="487"/>
      <point x="328" y="476" type="curve"/>
      <point x="313" y="487"/>
      <point x="294" y="494"/>
      <point x="273" y="494" type="curve" smooth="yes"/>
      <point x="143" y="494" type="line" smooth="yes"/>
      <point x="91" y="494"/>
      <point x="52" y="452"/>
      <point x="52" y="400" type="curve" smooth="yes"/>
      <point x="52" y="94" type="line" smooth="yes"/>
      <point x="52" y="42"/>
      <point x="90" y="0"/>
      <point x="142" y="0" type="curve" smooth="yes"/>
      <point x="273" y="0" type="line" smooth="yes"/>
      <point x="294" y="0"/>
      <point x="313" y="6"/>
      <point x="328" y="18" type="curve"/>
      <point x="343" y="6"/>
      <point x="363" y="0"/>
      <point x="384" y="0" type="curve" smooth="yes"/>
      <point x="526" y="0" type="line" smooth="yes"/>
      <point x="577" y="0"/>
      <point x="616" y="42"/>
      <point x="616" y="94" type="curve" smooth="yes"/>
      <point x="616" y="142" type="line" smooth="yes"/>
      <point x="616" y="144"/>
      <point x="614" y="146"/>
      <point x="613" y="146" type="curve"/>
      <point x="520" y="146" type="line" smooth="yes"/>
      <point x="518" y="146"/>
      <point x="516" y="144"/>
      <point x="516" y="142" type="curve" smooth="yes"/>
      <point x="516" y="81" type="line"/>
      <point x="516" y="80"/>
      <point x="515" y="78"/>
      <point x="513" y="78" type="curve" smooth="yes"/>
      <point x="398" y="78" type="line" smooth="yes"/>
      <point x="396" y="78"/>
      <point x="395" y="80"/>
      <point x="395" y="81" type="curve"/>
      <point x="395" y="209" type="line"/>
      <point x="612" y="209" type="line" smooth="yes"/>
      <point x="614" y="209"/>
      <point x="616" y="210"/>
      <point x="616" y="212" type="curve" smooth="yes"/>
      <point x="616" y="400" type="line" smooth="yes"/>
      <point x="616" y="451"/>
      <point x="577" y="493"/>
    </contour>
    <contour>
      <point x="290" y="88" type="line" smooth="yes"/>
      <point x="290" y="86"/>
      <point x="289" y="85"/>
      <point x="287" y="84" type="curve"/>
      <point x="161" y="84" type="line"/>
      <point x="159" y="85"/>
      <point x="157" y="86"/>
      <point x="157" y="88" type="curve" smooth="yes"/>
      <point x="157" y="408" type="line" smooth="yes"/>
      <point x="157" y="410"/>
      <point x="159" y="411"/>
      <point x="161" y="411" type="curve" smooth="yes"/>
      <point x="287" y="411" type="line" smooth="yes"/>
      <point x="289" y="411"/>
      <point x="290" y="410"/>
      <point x="290" y="408" type="curve" smooth="yes"/>
      <point x="290" y="404" type="line"/>
      <point x="290" y="400" type="line"/>
    </contour>
    <contour>
      <point x="395" y="407" type="line" smooth="yes"/>
      <point x="395" y="409"/>
      <point x="396" y="411"/>
      <point x="398" y="411" type="curve" smooth="yes"/>
      <point x="513" y="411" type="line" smooth="yes"/>
      <point x="515" y="411"/>
      <point x="516" y="409"/>
      <point x="516" y="407" type="curve" smooth="yes"/>
      <point x="516" y="281" type="line"/>
      <point x="395" y="281" type="line"/>
    </contour>
  </outline>
</glyph>
<glyph name="dotaccent" format="1">
  <advance width="194"/>
  <unicode hex="02D9"/>
  <outline>
    <contour>
      <point x="41" y="728" type="line" smooth="yes"/>
      <point x="39" y="728"/>
      <point x="37" y="727"/>
      <point x="37" y="725" type="curve" smooth="yes"/>
      <point x="37" y="631" type="line" smooth="yes"/>
      <point x="37" y="629"/>
      <point x="39" y="627"/>
      <point x="41" y="627" type="curve" smooth="yes"/>
      <point x="153" y="627" type="line" smooth="yes"/>
      <point x="155" y="627"/>
      <point x="156" y="629"/>
      <point x="157" y="631" type="curve"/>
      <point x="157" y="725" type="line"/>
      <point x="156" y="727"/>
      <point x="155" y="728"/>
      <point x="153" y="728" type="curve" smooth="yes"/>
    </contour>
  </outline>
</glyph>
<glyph name="tilde" format="1">
  <advance width="394"/>
  <unicode hex="02DC"/>
  <outline>
    <contour>
      <point x="231" y="578" type="line"/>
      <point x="247" y="571"/>
      <point x="262" y="571"/>
      <point x="275" y="578" type="curve" smooth="yes"/>
      <point x="340" y="613" type="line" smooth="yes"/>
      <point x="342" y="614"/>
      <point x="344" y="615"/>
      <point x="344" y="617" type="curve" smooth="yes"/>
      <point x="344" y="677" type="line" smooth="yes"/>
      <point x="344" y="679"/>
      <point x="342" y="681"/>
      <point x="341" y="681" type="curve"/>
      <point x="250" y="641" type="line" smooth="yes"/>
      <point x="247" y="639"/>
      <point x="246" y="640"/>
      <point x="244" y="641" type="curve" smooth="yes"/>
      <point x="162" y="686" type="line" smooth="yes"/>
      <point x="154" y="690"/>
      <point x="134" y="691"/>
      <point x="121" y="686" type="curve" smooth="yes"/>
      <point x="119" y="685"/>
      <point x="54" y="651"/>
      <point x="54" y="651" type="curve"/>
      <point x="55" y="651"/>
      <point x="50" y="649"/>
      <point x="50" y="647" type="curve" smooth="yes"/>
      <point x="50" y="587" type="line" smooth="yes"/>
      <point x="50" y="585"/>
      <point x="52" y="583"/>
      <point x="53" y="583" type="curve"/>
      <point x="140" y="622" type="line" smooth="yes"/>
      <point x="142" y="623"/>
      <point x="147" y="623"/>
      <point x="148" y="622" type="curve" smooth="yes"/>
    </contour>
    <contour>
      <point x="195" y="547" type="move" name="Top"/>
    </contour>
  </outline>
</glyph>
<glyph name="endash" format="1">
  <advance width="527"/>
  <unicode hex="2013"/>
  <outline>
    <contour>
      <point x="54" y="299" type="line"/>
      <point x="55" y="299"/>
      <point x="50" y="297"/>
      <point x="50" y="295" type="curve" smooth="yes"/>
      <point x="50" y="235" type="line" smooth="yes"/>
      <point x="50" y="233"/>
      <point x="52" y="231"/>
      <point x="53" y="231" type="curve"/>
      <point x="474" y="231" type="line"/>
      <point x="475" y="231"/>
      <point x="477" y="233"/>
      <point x="477" y="235" type="curve" smooth="yes"/>
      <point x="477" y="295" type="line" smooth="yes"/>
      <point x="477" y="297"/>
      <point x="475" y="299"/>
      <point x="473" y="299" type="curve" smooth="yes"/>
    </contour>
  </outline>
</glyph>
<glyph name="quoteleft" format="1">
  <advance width="225"/>
  <unicode hex="2018"/>
  <outline>
    <contour>
      <point x="171" y="526" type="line" smooth="yes"/>
      <point x="173" y="526"/>
      <point x="175" y="527"/>
      <point x="175" y="529" type="curve" smooth="yes"/>
      <point x="175" y="630" type="line" smooth="yes"/>
      <point x="175" y="632"/>
      <point x="173" y="634"/>
      <point x="171" y="634" type="curve" smooth="yes"/>
      <point x="115" y="634" type="line"/>
      <point x="54" y="723" type="line" smooth="yes"/>
      <point x="53" y="724"/>
      <point x="51" y="721"/>
      <point x="50" y="719" type="curve"/>
      <point x="50" y="529" type="line"/>
      <point x="51" y="527"/>
      <point x="52" y="526"/>
      <point x="54" y="526" type="curve" smooth="yes"/>
    </contour>
  </outline>
</glyph>
<glyph name="quotesinglbase" format="1">
  <advance width="228"/>
  <unicode hex="201A"/>
  <outline>
    <contour>
      <point x="57" y="126" type="line"/>
      <point x="55" y="126"/>
      <point x="54" y="125"/>
      <point x="53" y="123" type="curve"/>
      <point x="53" y="-67" type="line"/>
      <point x="54" y="-69"/>
      <point x="56" y="-72"/>
      <point x="57" y="-71" type="curve"/>
      <point x="118" y="18" type="line"/>
      <point x="174" y="18" type="line"/>
      <point x="176" y="18"/>
      <point x="178" y="20"/>
      <point x="178" y="22" type="curve"/>
      <point x="178" y="123" type="line"/>
      <point x="178" y="125"/>
      <point x="176" y="126"/>
      <point x="174" y="126" type="curve"/>
    </contour>
  </outline>
</glyph>
<glyph name="quotedblright" format="1">
  <advance width="422"/>
  <unicode hex="201D"/>
  <outline>
    <contour>
      <point x="54" y="727" type="line" smooth="yes"/>
      <point x="52" y="727"/>
      <point x="50" y="726"/>
      <point x="50" y="724" type="curve" smooth="yes"/>
      <point x="50" y="623" type="line" smooth="yes"/>
      <point x="50" y="621"/>
      <point x="52" y="619"/>
      <point x="54" y="619" type="curve" smooth="yes"/>
      <point x="110" y="619" type="line"/>
      <point x="171" y="530" type="line" smooth="yes"/>
      <point x="172" y="529"/>
      <point x="174" y="532"/>
      <point x="175" y="534" type="curve"/>
      <point x="175" y="724" type="line"/>
      <point x="174" y="726"/>
      <point x="173" y="727"/>
      <point x="171" y="727" type="curve" smooth="yes"/>
    </contour>
    <contour>
      <point x="251" y="727" type="line" smooth="yes"/>
      <point x="249" y="727"/>
      <point x="247" y="726"/>
      <point x="247" y="724" type="curve" smooth="yes"/>
      <point x="247" y="623" type="line" smooth="yes"/>
      <point x="247" y="621"/>
      <point x="249" y="619"/>
      <point x="251" y="619" type="curve" smooth="yes"/>
      <point x="307" y="619" type="line"/>
      <point x="368" y="530" type="line" smooth="yes"/>
      <point x="369" y="529"/>
      <point x="371" y="532"/>
      <point x="372" y="534" type="curve"/>
      <point x="372" y="724" type="line"/>
      <point x="371" y="726"/>
      <point x="370" y="727"/>
      <point x="368" y="727" type="curve" smooth="yes"/>
    </contour>
  </outline>
</glyph>
<glyph name="daggerdbl" format="1">
  <advance width="396"/>
  <unicode hex="2021"/>
  <outline>
    <contour>
      <point x="164" y="0" type="line"/>
      <point x="164" y="-161" type="line"/>
      <point x="164" y="-160"/>
      <point x="166" y="-165"/>
      <point x="168" y="-165" type="curve"/>
      <point x="228" y="-165" type="line"/>
      <point x="230" y="-165"/>
      <point x="232" y="-163"/>
      <point x="232" y="-162" type="curve"/>
      <point x="232" y="0" type="line"/>
      <point x="377" y="1" type="line"/>
      <point x="378" y="1"/>
      <point x="380" y="3"/>
      <point x="380" y="5" type="curve"/>
      <point x="380" y="65" type="line"/>
      <point x="380" y="67"/>
      <point x="378" y="69"/>
      <point x="376" y="69" type="curve"/>
      <point x="232" y="69" type="line"/>
      <point x="232" y="347" type="line"/>
      <point x="377" y="347" type="line"/>
      <point x="378" y="347"/>
      <point x="380" y="349"/>
      <point x="380" y="351" type="curve"/>
      <point x="380" y="411" type="line"/>
      <point x="380" y="413"/>
      <point x="378" y="415"/>
      <point x="376" y="415" type="curve"/>
      <point x="232" y="415" type="line"/>
      <point x="232" y="701" type="line"/>
      <point x="232" y="702"/>
      <point x="230" y="704"/>
      <point x="228" y="704" type="curve"/>
      <point x="168" y="704" type="line"/>
      <point x="166" y="704"/>
      <point x="164" y="702"/>
      <point x="164" y="700" type="curve"/>
      <point x="164" y="415" type="line"/>
      <point x="20" y="415" type="line"/>
      <point x="21" y="415"/>
      <point x="16" y="413"/>
      <point x="16" y="411" type="curve"/>
      <point x="16" y="351" type="line"/>
      <point x="16" y="349"/>
      <point x="18" y="347"/>
      <point x="19" y="347" type="curve"/>
      <point x="164" y="347" type="line"/>
      <point x="164" y="69" type="line"/>
      <point x="20" y="69" type="line"/>
      <point x="21" y="69"/>
      <point x="16" y="67"/>
      <point x="16" y="65" type="curve"/>
      <point x="16" y="5" type="line"/>
      <point x="16" y="3"/>
      <point x="18" y="1"/>
      <point x="19" y="1" type="curve"/>
    </contour>
  </outline>
</glyph>
<glyph name="ellipsis" format="1">
  <advance width="560"/>
  <unicode hex="2026"/>
  <outline>
    <contour>
      <point x="54" y="102" type="line" smooth="yes"/>
      <point x="52" y="102"/>
      <point x="50" y="101"/>
      <point x="50" y="99" type="curve" smooth="yes"/>
      <point x="50" y="5" type="line" smooth="yes"/>
      <point x="50" y="3"/>
      <point x="52" y="1"/>
      <point x="54" y="1" type="curve" smooth="yes"/>
      <point x="166" y="1" type="line" smooth="yes"/>
      <point x="168" y="1"/>
      <point x="169" y="3"/>
      <point x="170" y="5" type="curve"/>
      <point x="170" y="99" type="line"/>
      <point x="169" y="101"/>
      <point x="168" y="102"/>
      <point x="166" y="102" type="curve" smooth="yes"/>
    </contour>
    <contour>
      <point x="218" y="102" type="line" smooth="yes"/>
      <point x="216" y="102"/>
      <point x="214" y="101"/>
      <point x="214" y="99" type="curve" smooth="yes"/>
      <point x="214" y="5" type="line" smooth="yes"/>
      <point x="214" y="3"/>
      <point x="216" y="1"/>
      <point x="218" y="1" type="curve" smooth="yes"/>
      <point x="330" y="1" type="line" smooth="yes"/>
      <point x="332" y="1"/>
      <point x="333" y="3"/>
      <point x="334" y="5" type="curve"/>
      <point x="334" y="99" type="line"/>
      <point x="333" y="101"/>
      <point x="332" y="102"/>
      <point x="330" y="102" type="curve" smooth="yes"/>
    </contour>
    <contour>
      <point x="394" y="102" type="line" smooth="yes"/>
      <point x="392" y="102"/>
      <point x="390" y="101"/>
      <point x="390" y="99" type="curve" smooth="yes"/>
      <point x="390" y="5" type="line" smooth="yes"/>
      <point x="390" y="3"/>
      <point x="392" y="1"/>
      <point x="394" y="1" type="curve" smooth="yes"/>
      <point x="506" y="1" type="line" smooth="yes"/>
      <point x="508" y="1"/>
      <point x="509" y="3"/>
      <point x="510" y="5" type="curve"/>
      <point x="510" y="99" type="line"/>
      <point x="509" y="101"/>
      <point x="508" y="102"/>
      <point x="506" y="102" type="curve" smooth="yes"/>
    </contour>
  </outline>
</glyph>
<glyph name="guilsinglleft" format="1">
  <advance width="381"/>
  <unicode hex="2039"/>
  <outline>
    <contour>
      <point x="287" y="490" type="line"/>
      <point x="282" y="491"/>
      <point x="278" y="486"/>
      <point x="278" y="486" type="curve"/>
      <point x="54" y="260" type="line" smooth="yes"/>
      <point x="52" y="258"/>
      <point x="50" y="253"/>
      <point x="49" y="250" type="curve" smooth="yes"/>
      <point x="49" y="248" type="line"/>
      <point x="49" y="247" type="line"/>
      <point x="50" y="243"/>
      <point x="52" y="239"/>
      <point x="54" y="236" type="curve" smooth="yes"/>
      <point x="278" y="10" type="line"/>
      <point x="278" y="10"/>
      <point x="282" y="5"/>
      <point x="287" y="6" type="curve"/>
      <point x="310" y="5" type="line"/>
      <point x="311" y="5"/>
      <point x="313" y="7"/>
      <point x="313" y="9" type="curve" smooth="yes"/>
      <point x="313" y="104" type="line" smooth="yes"/>
      <point x="313" y="106"/>
      <point x="312" y="107"/>
      <point x="310" y="107" type="curve"/>
      <point x="178" y="237" type="line"/>
      <point x="176" y="240"/>
      <point x="174" y="245"/>
      <point x="174" y="248" type="curve" smooth="yes"/>
      <point x="174" y="250" type="line"/>
      <point x="174" y="251"/>
      <point x="176" y="257"/>
      <point x="178" y="259" type="curve" smooth="yes"/>
      <point x="310" y="389" type="line" smooth="yes"/>
      <point x="312" y="390"/>
      <point x="313" y="391"/>
      <point x="313" y="392" type="curve"/>
      <point x="313" y="487" type="line" smooth="yes"/>
      <point x="313" y="489"/>
      <point x="311" y="491"/>
      <point x="310" y="491" type="curve"/>
    </contour>
  </outline>
</glyph>
<glyph name="guilsinglright" format="1">
  <advance width="381"/>
  <unicode hex="203A"/>
  <outline>
    <contour>
      <point x="71" y="491" type="line"/>
      <point x="70" y="491"/>
      <point x="68" y="489"/>
      <point x="68" y="487" type="curve" smooth="yes"/>
      <point x="68" y="392" type="line"/>
      <point x="68" y="391"/>
      <point x="69" y="390"/>
      <point x="71" y="389" type="curve" smooth="yes"/>
      <point x="203" y="259" type="line" smooth="yes"/>
      <point x="205" y="257"/>
      <point x="207" y="251"/>
      <point x="207" y="250" type="curve"/>
      <point x="207" y="248" type="line" smooth="yes"/>
      <point x="207" y="245"/>
      <point x="205" y="240"/>
      <point x="203" y="237" type="curve"/>
      <point x="71" y="107" type="line"/>
      <point x="69" y="107"/>
      <point x="68" y="106"/>
      <point x="68" y="104" type="curve" smooth="yes"/>
      <point x="68" y="9" type="line" smooth="yes"/>
      <point x="68" y="7"/>
      <point x="70" y="5"/>
      <point x="71" y="5" type="curve"/>
      <point x="94" y="6" type="line"/>
      <point x="99" y="5"/>
      <point x="103" y="10"/>
      <point x="103" y="10" type="curve"/>
      <point x="327" y="236" type="line" smooth="yes"/>
      <point x="329" y="239"/>
      <point x="331" y="243"/>
      <point x="332" y="247" type="curve"/>
      <point x="332" y="248" type="line"/>
      <point x="332" y="250" type="line" smooth="yes"/>
      <point x="331" y="253"/>
      <point x="329" y="258"/>
      <point x="327" y="260" type="curve" smooth="yes"/>
      <point x="103" y="486" type="line"/>
      <point x="103" y="486"/>
      <point x="99" y="491"/>
      <point x="94" y="490" type="curve"/>
    </contour>
  </outline>
</glyph>
<glyph name="SUPERSCRIPT FOUR" format="1">
  <advance width="238"/>
  <unicode hex="2074"/>
  <outline>
    <contour>
      <point x="97" y="731" type="line"/>
      <point x="33" y="540" type="line" smooth="yes"/>
      <point x="32" y="538"/>
      <point x="32" y="536"/>
      <point x="32" y="535" type="curve"/>
      <point x="32" y="497" type="line"/>
      <point x="32" y="496"/>
      <point x="33" y="496"/>
      <point x="33" y="496" type="curve"/>
      <point x="134" y="496" type="line"/>
      <point x="134" y="399" type="line"/>
      <point x="134" y="398"/>
      <point x="134" y="397"/>
      <point x="135" y="397" type="curve"/>
      <point x="201" y="397" type="line"/>
      <point x="201" y="397"/>
      <point x="202" y="398"/>
      <point x="202" y="399" type="curve"/>
      <point x="202" y="728" type="line"/>
      <point x="202" y="729"/>
      <point x="202" y="730"/>
      <point x="201" y="730" type="curve"/>
    </contour>
    <contour>
      <point x="94" y="538" type="line"/>
      <point x="93" y="538"/>
      <point x="93" y="539"/>
      <point x="93" y="541" type="curve"/>
      <point x="94" y="542"/>
      <point x="120" y="633"/>
      <point x="133" y="673" type="curve"/>
      <point x="133" y="538" type="line"/>
    </contour>
  </outline>
</glyph>
<glyph name="trademark" format="1">
  <advance width="524"/>
  <unicode hex="2122"/>
  <outline>
    <contour>
      <point x="36" y="652" type="line" smooth="yes"/>
      <point x="36" y="652"/>
      <point x="34" y="652"/>
      <point x="34" y="651" type="curve" smooth="yes"/>
      <point x="34" y="610" type="line" smooth="yes"/>
      <point x="34" y="609"/>
      <point x="36" y="608"/>
      <point x="36" y="608" type="curve" smooth="yes"/>
      <point x="91" y="608" type="line"/>
      <point x="91" y="305" type="line" smooth="yes"/>
      <point x="91" y="304"/>
      <point x="91" y="303"/>
      <point x="92" y="303" type="curve" smooth="yes"/>
      <point x="143" y="303" type="line" smooth="yes"/>
      <point x="145" y="303"/>
      <point x="145" y="304"/>
      <point x="145" y="305" type="curve"/>
      <point x="145" y="608" type="line"/>
      <point x="199" y="608" type="line" smooth="yes"/>
      <point x="200" y="608"/>
      <point x="200" y="609"/>
      <point x="200" y="610" type="curve" smooth="yes"/>
      <point x="200" y="651" type="line" smooth="yes"/>
      <point x="200" y="652"/>
      <point x="200" y="652"/>
      <point x="199" y="652" type="curve"/>
    </contour>
    <contour>
      <point x="477" y="308" type="line" smooth="yes"/>
      <point x="477" y="305"/>
      <point x="477" y="305"/>
      <point x="476" y="305" type="curve" smooth="yes"/>
      <point x="427" y="305" type="line" smooth="yes"/>
      <point x="425" y="305"/>
      <point x="424" y="305"/>
      <point x="424" y="308" type="curve" smooth="yes"/>
      <point x="424" y="590" type="line" smooth="yes"/>
      <point x="424" y="598"/>
      <point x="419" y="608"/>
      <point x="408" y="608" type="curve" smooth="yes"/>
      <point x="398" y="608" type="line" smooth="yes"/>
      <point x="386" y="608"/>
      <point x="375" y="605"/>
      <point x="375" y="590" type="curve" smooth="yes"/>
      <point x="375" y="305" type="line" smooth="yes"/>
      <point x="375" y="304"/>
      <point x="373" y="304"/>
      <point x="373" y="304" type="curve" smooth="yes"/>
      <point x="330" y="304" type="line" smooth="yes"/>
      <point x="329" y="304"/>
      <point x="329" y="304"/>
      <point x="329" y="305" type="curve" smooth="yes"/>
      <point x="329" y="590" type="line" smooth="yes"/>
      <point x="329" y="605"/>
      <point x="318" y="608"/>
      <point x="306" y="608" type="curve" smooth="yes"/>
      <point x="296" y="608" type="line" smooth="yes"/>
      <point x="284" y="608"/>
      <point x="279" y="598"/>
      <point x="279" y="590" type="curve" smooth="yes"/>
      <point x="279" y="308" type="line" smooth="yes"/>
      <point x="279" y="305"/>
      <point x="278" y="305"/>
      <point x="277" y="305" type="curve" smooth="yes"/>
      <point x="227" y="305" type="line" smooth="yes"/>
      <point x="226" y="305"/>
      <point x="224" y="305"/>
      <point x="224" y="308" type="curve" smooth="yes"/>
      <point x="224" y="605" type="line" smooth="yes"/>
      <point x="224" y="631"/>
      <point x="244" y="652"/>
      <point x="270" y="652" type="curve" smooth="yes"/>
      <point x="313" y="652" type="line"/>
      <point x="343" y="652"/>
      <point x="350" y="624"/>
      <point x="351" y="614" type="curve"/>
      <point x="353" y="628"/>
      <point x="361" y="652"/>
      <point x="389" y="652" type="curve"/>
      <point x="432" y="652" type="line" smooth="yes"/>
      <point x="457" y="652"/>
      <point x="477" y="631"/>
      <point x="477" y="605" type="curve" smooth="yes"/>
    </contour>
  </outline>
</glyph>
<glyph name="fi" format="1">
  <advance width="635"/>
  <unicode hex="FB01"/>
  <outline>
    <contour>
      <point x="345" y="455" type="line"/>
      <point x="343" y="455"/>
      <point x="341" y="454"/>
      <point x="341" y="452" type="curve"/>
      <point x="341" y="4" type="line"/>
      <point x="341" y="2"/>
      <point x="343" y="0"/>
      <point x="345" y="0" type="curve"/>
      <point x="432" y="0" type="line"/>
      <point x="434" y="0"/>
      <point x="435" y="2"/>
      <point x="436" y="4" type="curve"/>
      <point x="436" y="452" type="line"/>
      <point x="435" y="454"/>
      <point x="434" y="455"/>
      <point x="432" y="455" type="curve"/>
    </contour>
    <contour>
      <point x="238" y="726" type="line"/>
      <point x="239" y="726" type="line"/>
      <point x="187" y="726"/>
      <point x="145" y="684"/>
      <point x="145" y="631" type="curve" smooth="yes"/>
      <point x="145" y="4" type="line" smooth="yes"/>
      <point x="145" y="2"/>
      <point x="146" y="1"/>
      <point x="148" y="1" type="curve" smooth="yes"/>
      <point x="243" y="1" type="line" smooth="yes"/>
      <point x="245" y="1"/>
      <point x="246" y="2"/>
      <point x="246" y="4" type="curve" smooth="yes"/>
      <point x="246" y="638" type="line"/>
      <point x="246" y="639"/>
      <point x="248" y="641"/>
      <point x="249" y="641" type="curve"/>
      <point x="249" y="641" type="line"/>
      <point x="249" y="641" type="line"/>
      <point x="337" y="641" type="line"/>
      <point x="337" y="641" type="line"/>
      <point x="337" y="641" type="line"/>
      <point x="338" y="641"/>
      <point x="340" y="639"/>
      <point x="340" y="638" type="curve"/>
      <point x="340" y="577" type="line" smooth="yes"/>
      <point x="340" y="575"/>
      <point x="341" y="574"/>
      <point x="343" y="574" type="curve" smooth="yes"/>
      <point x="425" y="574" type="line" smooth="yes"/>
      <point x="427" y="574"/>
      <point x="441" y="575"/>
      <point x="441" y="577" type="curve" smooth="yes"/>
      <point x="441" y="631" type="line" smooth="yes"/>
      <point x="441" y="684"/>
      <point x="399" y="726"/>
      <point x="347" y="726" type="curve" smooth="yes"/>
    </contour>
    <contour>
      <point x="405" y="454" type="curve"/>
      <point x="109" y="454" type="line" smooth="yes"/>
      <point x="107" y="454"/>
      <point x="106" y="452"/>
      <point x="106" y="450" type="curve" smooth="yes"/>
      <point x="106" y="362" type="line" smooth="yes"/>
      <point x="106" y="360"/>
      <point x="107" y="359"/>
      <point x="109" y="358" type="curve"/>
      <point x="405" y="358" type="line"/>
      <point x="407" y="359"/>
      <point x="408" y="360"/>
      <point x="408" y="362" type="curve" smooth="yes"/>
      <point x="408" y="450" type="line" smooth="yes"/>
      <point x="408" y="452"/>
      <point x="407" y="454"/>
    </contour>
  </outline>
</glyph>
<glyph name="fl" format="1">
  <advance width="631"/>
  <unicode hex="FB02"/>
  <outline>
    <contour>
      <point x="284" y="454" type="curve"/>
      <point x="197" y="454" type="line"/>
      <point x="197" y="638" type="line"/>
      <point x="197" y="639"/>
      <point x="199" y="641"/>
      <point x="200" y="641" type="curve"/>
      <point x="321" y="641" type="line"/>
      <point x="322" y="641"/>
      <point x="324" y="639"/>
      <point x="324" y="638" type="curve"/>
      <point x="324" y="577" type="line"/>
      <point x="324" y="576" type="line"/>
      <point x="324" y="4" type="line" smooth="yes"/>
      <point x="324" y="2"/>
      <point x="326" y="0"/>
      <point x="328" y="0" type="curve" smooth="yes"/>
      <point x="415" y="0" type="line" smooth="yes"/>
      <point x="417" y="0"/>
      <point x="418" y="2"/>
      <point x="419" y="4" type="curve"/>
      <point x="419" y="631" type="line"/>
      <point x="419" y="635" type="line"/>
      <point x="419" y="644" type="line"/>
      <point x="418" y="644"/>
      <point x="418" y="645"/>
      <point x="418" y="645" type="curve"/>
      <point x="411" y="691"/>
      <point x="372" y="726"/>
      <point x="325" y="726" type="curve" smooth="yes"/>
      <point x="189" y="726" type="line"/>
      <point x="137" y="725"/>
      <point x="96" y="683"/>
      <point x="96" y="631" type="curve" smooth="yes"/>
      <point x="96" y="454" type="line"/>
      <point x="60" y="454" type="line" smooth="yes"/>
      <point x="58" y="454"/>
      <point x="57" y="452"/>
      <point x="57" y="450" type="curve" smooth="yes"/>
      <point x="57" y="362" type="line" smooth="yes"/>
      <point x="57" y="360"/>
      <point x="58" y="359"/>
      <point x="60" y="358" type="curve"/>
      <point x="96" y="358" type="line"/>
      <point x="96" y="4" type="line" smooth="yes"/>
      <point x="96" y="2"/>
      <point x="97" y="1"/>
      <point x="99" y="1" type="curve" smooth="yes"/>
      <point x="194" y="1" type="line" smooth="yes"/>
      <point x="196" y="1"/>
      <point x="197" y="2"/>
      <point x="197" y="4" type="curve" smooth="yes"/>
      <point x="197" y="358" type="line"/>
      <point x="284" y="358" type="line"/>
      <point x="286" y="359"/>
      <point x="287" y="360"/>
      <point x="287" y="362" type="curve" smooth="yes"/>
      <point x="287" y="450" type="line" smooth="yes"/>
      <point x="287" y="452"/>
      <point x="286" y="454"/>
    </contour>
  </outline>
</glyph>
